<svg xmlns="http://www.w3.org/2000/svg" xmlns:xlink="http://www.w3.org/1999/xlink" data-name="Layer 1" width="1076.5486246480395" height="598.357808100498" style=""><rect id="backgroundrect" width="100%" height="100%" x="0" y="0" fill="none" stroke="none"/><defs><linearGradient id="dff037aa-d578-4bab-81e7-399360663117" x1="0.4999183118343353" y1="1" x2="0.4999183118343353" y2="-0.0007772973040118814"><stop offset="0" stop-color="gray" stop-opacity="0.25"/><stop offset="0.54" stop-color="gray" stop-opacity="0.12"/><stop offset="1" stop-color="gray" stop-opacity="0.1"/></linearGradient></defs><title>programming</title><g class="currentLayer" style=""><title>Layer 1</title><path d="M961.4692465138435,438.1750956726074 q-1.7400000000000002,3.75 -3.47,7.4 q-2.7,5.67 -5.33,11.12 c-0.78,1.61 -1.56,3.19 -2.3200000000000003,4.77 c-8.6,17.57 -16.63,33.11 -23.45,45.89 A73.21,73.21 0 0 1 863.0892465138436,546.0550956726074 l-151.65,1.6500000000000006 h-1.6 l-13,0.14 l-11.12,0.12000000000000002 l-34.1,0.37000000000000016 l-1.3800000000000001,0 l-17.36,0.19000000000000009 h-0.53 l-107,1.1600000000000001 l-95.51,1 l-11.11,0.12000000000000002 l-69,0.7500000000000003 H349.64924651384354 l-44.75,0.48000000000000015 h-0.48000000000000015 l-141.5,1.53 l-42.33,0.46 a88.07,88.07 0 0 1 -26.67,-3.8200000000000003 a86.39,86.39 0 0 1 -39.09,-24.75 C36.649246513843536,505.4250956726074 23.399246513843536,482.0550956726074 14.49924651384353,456.6950956726074 q-1.9300000000000002,-5.49 -3.6,-11.12 C-19.910753486156466,341.4250956726074 17.649246513843536,207.05509567260742 85.24924651384353,117.1350956726074 q4.25,-5.6400000000000015 8.64,-11 l0.07,-0.08000000000000004 c20.79,-25.52 44.1,-46.84 68.93,-62 c44,-26.91 92.75,-34.49 140.7,-11.9 c40.57,19.12 78.45,28.11 115.17,30.55 c3.71,0.24000000000000007 7.42,0.42000000000000015 11.11,0.53 c84.23,2.6500000000000004 163.17,-27.7 255.87,-47.29 c3.6900000000000004,-0.78 7.39,-1.55 11.12,-2.2800000000000002 c66.13,-13.16 139.49,-20.1 226.73,-5.51 a189.09,189.09 0 0 1 26.76,6.4 q5.77,1.86 11.12,4 c41.64,16.94 64.35,48.24 74,87.46 q1.37,5.46 2.37,11.11 C1054.9492465138435,211.46509567260745 1004.8392465138436,345.28509567260744 961.4692465138435,438.1750956726074 z" fill="#651e32" opacity="0.1" id="svg_1" class=""/><g opacity="0.1" id="svg_2" class=""><path d="M163.77640270233155,44.05509567260742 V553.6750956726074 l-42.33,0.46 a88.07,88.07 0 0 1 -26.67,-3.8200000000000003 V106.05509567260742 h0.07 C115.63640270233154,80.50509567260741 138.94640270233154,59.18509567260742 163.77640270233155,44.05509567260742 z" fill="#651e32" id="svg_3"/><path d="M1038.7764027023316,117.1350956726074 H86.13640270233154 q4.25,-5.6400000000000015 8.64,-11 V106.05509567260742 h941.63 Q1037.7764027023316,111.48509567260743 1038.7764027023316,117.1350956726074 z" fill="#651e32" id="svg_4"/><path d="M962.3564027023315,18.565095672607413 v427 h-3.47 q-2.7,5.67 -5.33,11.12 c-0.78,1.61 -1.56,3.19 -2.3200000000000003,4.77 V14.52509567260742 Q957.0064027023316,16.385095672607434 962.3564027023315,18.565095672607413 z" fill="#651e32" id="svg_5"/><path d="M697.7464027023316,13.635095672607434 V547.8850956726075 l-11.12,0.12000000000000002 V15.915095672607436 C690.3164027023315,15.135095672607434 694.0164027023316,14.365095672607424 697.7464027023316,13.635095672607434 z" fill="#651e32" id="svg_6"/><path d="M430.75640270233157,63.20509567260743 V550.7850956726074 l-11.11,0.12000000000000002 V62.675095672607426 C423.35640270233154,62.915095672607436 427.0664027023315,63.05509567260742 430.75640270233157,63.20509567260743 z" fill="#651e32" id="svg_7"/><path d="M958.8864027023315,445.5750956726074 q-2.7,5.67 -5.33,11.12 H15.386402702331537 q-1.9300000000000002,-5.49 -3.6,-11.12 z" fill="#651e32" id="svg_8"/></g><rect x="213.3635663986206" y="265.7950859069824" width="19" height="57.65999984741211" fill="#464549" id="svg_9" class="" fill-opacity="1"/><rect x="723.8063917160034" y="262.7950859069824" width="19" height="61" fill="#39383d" id="svg_10" class="" fill-opacity="1"/><polygon points="863.0892286300659,533.6151237487793 863.0892286300659,546.6151237487793 711.1692457199097,548.0150871276855 709.5492506027222,548.0451164245605 651.8092603683472,548.5750846862793 650.4292554855347,548.5951042175293 632.8792676925659,548.7451286315918 632.3592481613159,548.7451286315918 525.3792676925659,549.7351188659668 349.7692518234253,551.3651237487793 349.6192579269409,551.3651237487793 304.96926403045654,551.7851066589355 304.4892530441284,551.7951164245605 106.08924388885498,553.6151237487793 106.08924388885498,538.6151237487793 152.73923778533936,510.6150932312012 246.33924388885498,509.8350944519043 248.33924388885498,509.8250846862793 248.9992322921753,509.8151054382324 250.9992322921753,509.78510665893555 295.93926525115967,509.41511154174805 297.94924449920654,509.40510177612305 298.58925914764404,509.39509201049805 300.58925914764404,509.3851127624512 314.9992628097534,509.26508712768555 315.3792676925659,509.2551078796387 350.92925548553467,508.9550895690918 351.21926403045654,508.9550895690918 628.6192579269409,506.6150932312012 635.4092359542847,506.5651054382324 636.0892286300659,506.5651054382324 641.2692823410034,506.51508712768555 678.9192457199097,506.2050895690918 680.9192457199097,506.1750907897949 682.7692823410034,506.15510177612305 683.7292432785034,506.15510177612305 695.4392652511597,506.0651054382324 697.7592725753784,506.03510665893555 700.8692579269409,506.01508712768555 710.6192579269409,505.9250907897949 726.0892286300659,505.7950859069824 728.0892286300659,505.77509689331055 731.5692701339722,505.7551078796387 732.2192335128784,505.7551078796387 806.9292554855347,505.1150932312012 863.0892286300659,533.6151237487793 " fill="#4e4d52" id="svg_11" class="" fill-opacity="1"/><path d="M296.97640270233154,483.6250956726075 v24.49 a6.13,6.13 0 0 1 -3.5,5.54 a6,6 0 0 1 -2.5,0.6000000000000002 l-34.9,0.7400000000000002 a6,6 0 0 1 -2.7,-0.5700000000000002 a6.12,6.12 0 0 1 -3.5700000000000003,-5.57 V483.6250956726075 z" fill="#3f3d56" id="svg_13" class=""/><path d="M296.97640270233154,483.6250956726075 v24.49 a6.13,6.13 0 0 1 -3.5,5.54 a6,6 0 0 1 -2.5,0.6000000000000002 l-34.9,0.7400000000000002 a6,6 0 0 1 -2.7,-0.5700000000000002 a6.12,6.12 0 0 1 -3.5700000000000003,-5.57 V483.6250956726075 z" opacity="0.1" id="svg_14" class=""/><path d="M298.08924651384353,483.6250956726075 v24.49 a6.13,6.13 0 0 1 -3.5,5.54 a6,6 0 0 1 -2.5,0.6000000000000003 l-34.9,0.7400000000000003 a6,6 0 0 1 -2.7,-0.5700000000000003 a6.12,6.12 0 0 1 -3.5700000000000003,-5.57 V483.6250956726075 z" fill="#4e4d52" id="svg_15" class="" fill-opacity="1"/><rect x="681.8063917160034" y="483.6251029968262" width="47.16999816894531" height="31.5" fill="#3f3d56" id="svg_16" class=""/><rect x="681.8063917160034" y="483.6251029968262" width="47.16999816894531" height="31.5" opacity="0.1" id="svg_17" class=""/><rect x="679.8063917160034" y="483.6251029968262" width="47.16999816894531" height="31.5" fill="#4e4d52" id="svg_18" class="" fill-opacity="1"/><polygon points="231.4764051437378,265.78510665893555 231.4764051437378,271.51508712768555 212.4764051437378,271.02509689331055 212.4764051437378,265.78510665893555 231.4764051437378,265.78510665893555 " opacity="0.1" id="svg_19" class=""/><path d="M356.53640270233154,104.36509567260742 l-22.83,164 a4.3,4.3 0 0 1 -4.37,3.71 L146.53640270233154,267.3350956726074 l-3.47,-0.09000000000000004 a4.3,4.3 0 0 1 -4.16,-4.87 L164.53640270233154,90.69509567260741 a4.3,4.3 0 0 1 4.54,-3.63 L352.53640270233154,99.48509567260743 A4.29,4.29 0 0 1 356.53640270233154,104.36509567260742 z" fill="#4e4d52" id="svg_20" class="" fill-opacity="1"/><polygon points="176.80639171600342,99.12510299682617 157.4764051437378,250.45510482788086 325.4764051437378,255.78510665893555 346.13640880584717,109.78509902954102 176.80639171600342,99.12510299682617 " fill="#651e32" id="svg_21" class=""/><rect x="385.4764051437378" y="96.78509902954102" width="204.6699981689453" height="173.3300018310547" rx="5.329999923706055" ry="5.329999923706055" fill="#4e4d52" id="svg_22" class="" fill-opacity="1"/><rect x="395.13640880584717" y="108.45509719848633" width="186" height="144.3300018310547" fill="#651e32" id="svg_23" class=""/><polygon points="742.8063917160034,262.78510665893555 742.8063917160034,266.5750846862793 723.8063917160034,266.9650993347168 723.8063917160034,262.78510665893555 742.8063917160034,262.78510665893555 " opacity="0.1" id="svg_24" class=""/><path d="M828.5364027023315,259.5850956726074 a3.08,3.08 0 0 1 -3,3.2800000000000002 L638.3364027023315,266.73509567260743 a3.08,3.08 0 0 1 -3.13,-2.79 L619.1164027023316,96.66509567260744 a3.08,3.08 0 0 1 2.92,-3.37 L807.8164027023315,84.05509567260742 l2,-0.1 a3.07,3.07 0 0 1 3.22,2.8 z" fill="#4e4d52" id="svg_25" class="" fill-opacity="1"/><polygon points="629.8063917160034,103.12510299682617 799.4763746261597,94.78509902954102 813.8063917160034,246.78510665893555 645.4763746261597,250.78510665893555 629.8063917160034,103.12510299682617 " fill="#651e32" id="svg_26" class=""/><path d="M828.5364027023315,259.5850956726074 a3.08,3.08 0 0 1 -3,3.2800000000000002 L807.8164027023315,84.05509567260742 l2,-0.1 a3.07,3.07 0 0 1 3.22,2.8 z" opacity="0.1" id="svg_27" class=""/><path d="M169.10640270233154,87.05509567260742 L146.53640270233154,267.3350956726074 l-3.47,-0.09000000000000004 a4.3,4.3 0 0 1 -4.16,-4.87 L164.53640270233154,90.69509567260741 A4.3,4.3 0 0 1 169.10640270233154,87.05509567260742 z" opacity="0.1" id="svg_28" class=""/><rect x="212.4764051437378" y="306.3751029968262" width="19" height="17.079999923706055" opacity="0.1" id="svg_29" class=""/><polygon points="298.9764051437378,483.6150932312012 298.9764051437378,488.5850944519043 251.80639171600342,489.8451042175293 251.80639171600342,483.6150932312012 298.9764051437378,483.6150932312012 " opacity="0.1" id="svg_30" class=""/><path d="M382.22640270233154,312.3250956726074 v168.2 a4,4 0 0 1 -3.85,3.95 l-191.65,5.1 h-0.05000000000000002 a4,4 0 0 1 -3.95,-3.95 V312.3250956726074 a4,4 0 0 1 3.95,-3.95 h191.6 A4,4 0 0 1 382.22640270233154,312.3250956726074 z" fill="#4e4d52" id="svg_31" class="" fill-opacity="1"/><path d="M186.72640270233154,308.3750956726074 v181.2 h-0.05000000000000002 a4,4 0 0 1 -3.95,-3.95 V312.3250956726074 a4,4 0 0 1 3.95,-3.95 z" opacity="0.1" id="svg_32" class=""/><polygon points="195.4764051437378,319.1150932312012 372.9764051437378,319.1150932312012 372.9764051437378,467.3650932312012 195.4764051437378,471.3650932312012 195.4764051437378,319.1150932312012 " fill="#c9c9c9" id="svg_33" class="" fill-opacity="1"/><rect x="723.8063917160034" y="306.3751029968262" width="19" height="17.420000076293945" opacity="0.1" id="svg_34" class=""/><polygon points="726.9763746261597,483.6150932312012 726.9763746261597,490.02509689331055 679.8063917160034,488.76508712768555 679.8063917160034,483.6150932312012 726.9763746261597,483.6150932312012 " opacity="0.1" id="svg_35" class=""/><path d="M789.2264027023316,312.3250956726074 v173.3 a4,4 0 0 1 -4,3.95 h0 L593.5364027023315,484.4750956726074 a4,4 0 0 1 -3.85,-3.95 V312.3250956726074 a4,4 0 0 1 3.95,-3.95 h191.6 A4,4 0 0 1 789.2264027023316,312.3250956726074 z" fill="#4e4d52" id="svg_36" class="" fill-opacity="1"/><path d="M789.2264027023316,312.3250956726074 v173.3 a4,4 0 0 1 -4,3.95 h0 V308.3750956726074 h0 A4,4 0 0 1 789.2264027023316,312.3250956726074 z" opacity="0.1" id="svg_37" class=""/><polygon points="776.4763746261597,319.1150932312012 598.9763746261597,319.1150932312012 598.9763746261597,467.3650932312012 776.4763746261597,471.3650932312012 776.4763746261597,319.1150932312012 " fill="#c9c9c9" id="svg_38" class="" fill-opacity="1"/><path d="M584.7264027023316,312.3250956726074 v168.2 a4,4 0 0 1 -3.85,3.95 l-191.65,5.1 h0 a4,4 0 0 1 -4,-3.95 V312.3250956726074 a4,4 0 0 1 3.95,-3.95 h191.6 A4,4 0 0 1 584.7264027023316,312.3250956726074 z" fill="#4e4d52" id="svg_39" class="" fill-opacity="1"/><polygon points="397.9764051437378,319.1150932312012 575.4763746261597,319.1150932312012 575.4763746261597,467.3650932312012 397.9764051437378,471.3650932312012 397.9764051437378,319.1150932312012 " fill="#c9c9c9" id="svg_40" class="" fill-opacity="1"/><polygon points="863.9763746261597,533.6151237487793 863.9763746261597,546.6151237487793 712.0563917160034,548.0150871276855 710.4363965988159,548.0451164245605 652.6964063644409,548.5750846862793 651.3164014816284,548.5951042175293 633.7664136886597,548.7451286315918 633.2463941574097,548.7451286315918 526.2664136886597,549.7351188659668 350.65639781951904,551.3651237487793 350.50640392303467,551.3651237487793 305.8564100265503,551.7851066589355 305.37639904022217,551.7951164245605 106.97639751434326,553.6151237487793 106.97639751434326,538.6151237487793 309.48638439178467,537.2851066589355 309.9663953781128,537.2851066589355 350.9563856124878,537.0050773620605 351.14638805389404,537.0050773620605 634.2263746261597,535.135082244873 634.5164136886597,535.135082244873 634.6863965988159,535.125072479248 635.1564283370972,535.125072479248 639.9464063644409,535.0951042175293 641.4064283370972,535.0951042175293 715.8964185714722,534.5951042175293 720.2963819503784,534.5750846862793 721.2764234542847,534.5650749206543 863.9763746261597,533.6151237487793 " opacity="0.1" id="svg_41" class=""/><circle cx="488.13640880584717" cy="272.1251029968262" r="51.33000183105469" fill="#fbbebe" id="svg_42" class=""/><path d="M305.27640270233155,552.1450956726075 c0,-0.11000000000000003 0.06000000000000002,-0.23 0.1,-0.3500000000000001 c1,-3.59 2.7800000000000002,-9.66 4.11,-14.51 c0.17,-0.6000000000000002 0.3300000000000001,-1.19 0.4800000000000001,-1.75 c1.47,-5.47 4.33,-18.28 5.92,-26.27 c0.56,-2.81 1,-5 1.09,-6.1 c0.2,-1.6900000000000004 3.21,-8.92 6.62,-17.23 c2.39,-5.84 5,-12.22 6.91,-17.6 a61.38,61.38 0 0 0 2.93,-9.85 a5.1,5.1 0 0 0 0,-2.13 a14.69,14.69 0 0 1 -0.4800000000000001,-3.5 v0 c-0.23,-6.2 1.62,-16 4.48,-20.11 c3.5,-5 6,-23.66 6,-23.66 s5.18,0.7500000000000002 6,-3.5300000000000002 a6.15,6.15 0 0 0 0.1,-1.4 a7.41,7.41 0 0 0 -0.09000000000000004,-1.11 c-0.8900000000000002,-6.24 14.72,-12.88 23.5,-14.31 a19.67,19.67 0 0 1 3,-0.28 a27.24,27.24 0 0 0 6.25,-1.44 q1.4,-0.4300000000000001 3,-1 c3.68,-1.24 8.08,-2.88 12.75,-4.68 c17.56,-6.8100000000000005 38.82,-16 38.82,-16 c0.15000000000000005,-0.7100000000000002 0.3200000000000001,-1.3900000000000001 0.51,-2.06 a27.71,27.71 0 0 1 16.35,-18.93 h0 c0,-0.6600000000000003 0,-1.33 0,-2 c0,-3.45 -0.15000000000000005,-7 -0.3000000000000001,-10.54 c0,-0.6900000000000004 -0.06000000000000002,-1.3800000000000001 -0.1,-2.07 c0,-0.2 0,-0.4100000000000001 0,-0.6100000000000002 s0,-0.3500000000000001 0,-0.52 c0,-0.7000000000000002 -0.07,-1.4 -0.11000000000000003,-2.09 l-0.18000000000000005,-0.14 a16.41,16.41 0 0 1 -3.9,-4.2 a15.27,15.27 0 0 1 -1.42,-3 c-1.25,-3.39 -1.54,-7.17 -2.38,-10.75 l-0.18000000000000005,-0.7400000000000002 a84,84 0 0 0 -4,-10.58 c-2.21,-5.42 -3.91,-11 -5.6,-16.65 q-1.54,-5.13 -3.11,-10.28 l-1.58,-5.24 c-0.3000000000000001,-1 -0.6000000000000002,-2 -0.8300000000000002,-3 v0 a13.27,13.27 0 0 1 -0.26,-1.4 a0,0 0 0 1 0,0 a10,10 0 0 1 0.24000000000000005,-4.61 a32.09,32.09 0 0 1 1.32,-3 a7.87,7.87 0 0 0 0.5,-1.3800000000000001 v0 a3,3 0 0 0 0.08000000000000003,-0.3200000000000001 a5.65,5.65 0 0 0 0.11000000000000003,-1.08 a18.46,18.46 0 0 0 -0.52,-3.89 a0.07,0.07 0 0 1 0,-0.05000000000000002 a2.56,2.56 0 0 0 -0.05000000000000002,-0.27 a25.48,25.48 0 0 1 -0.3600000000000001,-3 a28.45,28.45 0 0 1 3.47,-15.57 l0.19000000000000006,-0.3600000000000001 a25.22,25.22 0 0 1 1.84,-2.7800000000000002 h0 c0.3100000000000001,-0.4200000000000001 0.6300000000000002,-0.8200000000000002 1,-1.22 c-1.4,1.34 -3.7,0.7500000000000002 -5,-0.6900000000000004 a3.6100000000000003,3.6100000000000003 0 0 1 -0.55,-0.7500000000000002 a3.81,3.81 0 0 1 -0.23,-0.45 c-0.05000000000000002,-0.12000000000000002 -0.09000000000000004,-0.25 -0.13,-0.3800000000000001 c-0.7000000000000002,-2.45 0.52,-5.06 2.12,-7.05 a18.49,18.49 0 0 1 5.74,-4.7 h0 a3.84,3.84 0 0 1 0.4,-0.21000000000000005 a17.12,17.12 0 0 1 2.64,-1.06 h0 a15.06,15.06 0 0 1 1.6300000000000003,-0.4400000000000001 l-3.71,-0.3400000000000002 l-1.5,-0.14 a14.49,14.49 0 0 1 13,-10.91 h1.08 a11.73,11.73 0 0 1 1.57,0.13 a4.44,4.44 0 0 1 -2.6500000000000004,-4.33 a14.41,14.41 0 0 0 9.19,3.06 h0.3800000000000001 a30,30 0 0 1 -0.3400000000000002,-3.27 h0 a0,0 0 0 1 0,0 a0,0 0 0 1 0,0 a33.19,33.19 0 0 1 0,-4.46 a8.44,8.44 0 0 0 6.78,2.26 l-2.08,-2.9 a9.49,9.49 0 0 0 6.5600000000000005,2.05 l0.4800000000000001,-0.05000000000000002 a7,7 0 0 0 1.19,-0.23 l0.09000000000000004,0 c-0.19000000000000006,-0.24000000000000005 -0.3600000000000001,-0.4900000000000001 -0.53,-0.7500000000000002 l-0.06000000000000002,-0.12000000000000002 a9.67,9.67 0 0 1 -1,-2.09 a6.59,6.59 0 0 1 -0.24000000000000005,-0.8700000000000002 h0 a8.75,8.75 0 0 1 0.45,-5.45 c3.23,2.7 6.77,6.39 11,3.6 s4.37,-7.91 11,-7.39 a10.2,10.2 0 0 1 8.41,6.12 a6.75,6.75 0 0 1 7.67,-1.75 a6.85,6.85 0 0 1 3.88,6.8900000000000015 c2.75,-0.6900000000000004 5.71,-1.37 8.35,-0.3300000000000001 s4.34,4.41 2.84,6.66 a1.4300000000000002,1.4300000000000002 0 0 1 -0.14,0.2 c-1.23,1.59 -3.95,2.46 -3.66,4.46 l0.4200000000000001,0.3000000000000001 l1.3,0.9400000000000002 a0.05000000000000002,0.05000000000000002 0 0 1 0,0 q7.65,5.52 14.9,11.6 c2.48,2.08 5.12,4.58 5.29,7.83 a8.64,8.64 0 0 1 -0.24000000000000005,2.37 h0 c-0.16000000000000006,0.78 -0.3800000000000001,1.56 -0.55,2.34 a19.51,19.51 0 0 0 -0.3400000000000002,6.05 h0 c0.07,0.5900000000000002 0.16000000000000006,1.17 0.27,1.7600000000000002 c1.53,7.73 7.71,14.11 8.32,22 l0,0.56 a17.78,17.78 0 0 1 -0.07,2.5300000000000002 c-0.46,4.8 -2.68,9.41 -4.48,14 c-0.11000000000000003,0.28 -0.22000000000000006,0.56 -0.3200000000000001,0.8400000000000002 c-3.47,9 -5.47,18.59 -7,28.16 a100.26,100.26 0 0 1 -2,10.09 A26.73,26.73 0 0 1 532.5364027023315,319.1250956726074 a16.22,16.22 0 0 1 -3.36,3 a18.67,18.67 0 0 1 -2.6500000000000004,1.4100000000000001 s0,0 0,0.06000000000000002 c0.11000000000000003,0.6100000000000002 0.2,1.22 0.3100000000000001,1.83 c0.06000000000000002,0.3200000000000001 0.11000000000000003,0.6400000000000002 0.17,1 h0 a0.14,0.14 0 0 0 0,0.06000000000000002 c0.8400000000000002,4.73 1.8,9.36 2.81,13.76 l0.51,2.19 c12.6,4.55 14.09,13.870000000000001 14.18,17.44 a9.64,9.64 0 0 1 0,1.4300000000000002 s19,0.5 26.5,6 a20.34,20.34 0 0 0 4.51,2.3 a83,83 0 0 0 9.25,2.89 c1.61,0.4200000000000001 3.29,0.8300000000000002 5,1.23 c3,0.6900000000000004 6.18,1.36 9.25,2 c8.19,1.6500000000000004 15.9,3 19.81,4 c9.33,2.36 30.67,22.82 30.67,22.82 s2.5,20.64 5,23.65 s7,13.59 7,13.59 l16.54,29.41 l7,12.37 h4.5 c0.6200000000000002,0 1.84,0.8800000000000002 3.21,2.1 c1.19,1.06 2.51,2.38 3.67,3.58 l1.92,2.05 l1.2,1.33 s7.27,0.18000000000000005 9.24,5.93 c5.92,-0.17 13.19,0.22000000000000006 18.28,2.5 a14.14,14.14 0 0 1 2,1.08 a8.68,8.68 0 0 1 4.13,5.66 a8.34,8.34 0 0 1 0.18000000000000005,1.44 c0,0.5700000000000002 0,1.1400000000000001 0,1.7000000000000002 c-0.3600000000000001,7.57 -5.29,13.870000000000001 -9.82,18.11 l0.3200000000000001,0.5700000000000002 s-0.15000000000000005,0.3600000000000001 -0.4400000000000001,1 c-0.08000000000000003,0.19000000000000006 -0.18000000000000005,0.4 -0.2900000000000001,0.6400000000000002 h0 c-0.5900000000000002,1.26 -1.53,3.15 -2.7600000000000002,5.36 a63.31,63.31 0 0 1 -9.57,13.17 l-0.2900000000000001,0.3000000000000001 l-57.74,0.53 l-0.17,-0.2 L641.4064027023315,535.0550956726074 l-5.57,-6.6400000000000015 l-0.17,-0.21000000000000005 l-0.16000000000000006,1.59 l-0.54,5.3 l-1.3,12.81 l-0.07,0.6400000000000002 l0,0.17 l-0.15000000000000005,1.48 l0.11000000000000003,-1.48 h-0.2900000000000001 l-107,1 L350.64640270233156,551.6550956726074 l0,0.8400000000000002 h-0.14 l0,-0.8400000000000002 l-44.75,0.4800000000000001 z" fill="url(#dff037aa-d578-4bab-81e7-399360663117)" id="svg_43" class=""/><path d="M539.4764027023316,377.1250956726075 s-99.5,12 -90,0 c3.44,-4.34 4.39,-17.2 4.2,-31.85 c-0.06000000000000002,-4.45 -0.22000000000000006,-9.06 -0.45,-13.65 c-1.1,-22 -3.75,-43.5 -3.75,-43.5 s87,-41 77,-8.5 c-4,13.13 -2.6900000000000004,31.57 0.3500000000000001,48.88 c0.8900000000000002,5.05 1.92,10 3,14.7 A344.67,344.67 0 0 0 539.4764027023316,377.1250956726075 z" fill="#f7d4ae" id="svg_44" class="" transform="translate(-0.8871561884880066,0) " fill-opacity="1"/><path d="M539.4764027023316,377.1250956726075 s-99.5,12 -90,0 c3.44,-4.34 4.39,-17.2 4.2,-31.85 c15.17,-6.48 34.47,-1.6500000000000004 34.47,-1.6500000000000004 c20.32,-4.05 33.35,-3.26 41.68,-0.4200000000000001 A344.67,344.67 0 0 0 539.4764027023316,377.1250956726075 z" opacity="0.1" id="svg_45" class=""/><path d="M350.6164027023315,552.4950956726075 l0,-0.8400000000000002 l175.62,-1.9100000000000001 l107,-1 H633.5364027023315 l-0.11000000000000003,1.48 l0.15000000000000005,-1.48 h0.19000000000000006 l0,-0.17 l1.37,-13.45 l0.52,-5.09 l0.16000000000000006,-1.59 l0.14,-1.33 l6.18,-20.61 l6.18,-20.58 l5.2,-17.33 l7.94,-26.48 s-4.5,-10.5 -7,-13.5 s-5,-23.5 -5,-23.5 s-21.34,-20.33 -30.67,-22.67 c-3.91,-1 -11.63,-2.33 -19.83,-4 c-3.07,-0.6200000000000002 -6.22,-1.28 -9.25,-2 c-1.71,-0.3900000000000001 -3.39,-0.8 -5,-1.21 a87.91,87.91 0 0 1 -9.25,-2.8600000000000003 a20.7,20.7 0 0 1 -4.5,-2.29 c-7.35,-5.39 -25.77,-6 -26.48,-6 h0 a0.4200000000000001,0.4200000000000001 0 0 1 0,-0.07 v-0.09000000000000004 a10.26,10.26 0 0 0 0,-1.26 c0,-0.4 0,-0.8700000000000002 -0.09000000000000004,-1.4 c0,-0.16000000000000006 0,-0.3300000000000001 -0.07,-0.5 c-0.05000000000000002,-0.3600000000000001 -0.11000000000000003,-0.7400000000000002 -0.2,-1.1400000000000001 a5,5 0 0 0 -0.12000000000000002,-0.53 a17.21,17.21 0 0 0 -1.25,-3.49 c-0.07,-0.16000000000000006 -0.16000000000000006,-0.3300000000000001 -0.24000000000000005,-0.4900000000000001 a18.25,18.25 0 0 0 -1.7000000000000002,-2.63 c-0.13,-0.17 -0.27,-0.3500000000000001 -0.4200000000000001,-0.52 a19.58,19.58 0 0 0 -2.72,-2.64 c-0.27,-0.21000000000000005 -0.55,-0.4300000000000001 -0.8400000000000002,-0.6300000000000002 a4.67,4.67 0 0 0 -0.51,-0.3600000000000001 l-0.8900000000000002,-0.5800000000000002 l-0.8300000000000002,-0.4800000000000001 c-0.7300000000000002,-0.4 -1.5,-0.79 -2.34,-1.1600000000000001 c-0.26,-0.12000000000000002 -0.54,-0.23 -0.8200000000000002,-0.3400000000000002 s-0.7200000000000002,-0.28 -1.09,-0.4200000000000001 l-0.06000000000000002,0 L529.5364027023315,345.0550956726074 c-0.5700000000000002,-0.19000000000000006 -1.15,-0.3600000000000001 -1.7600000000000002,-0.53 l-0.93,-0.24000000000000005 l-1,-0.23 l-1,-0.21000000000000005 c-1,-0.2 -2.07,-0.3800000000000001 -3.19,-0.52 l-1.1400000000000001,-0.14 l-1.17,-0.12000000000000002 l-1.21,-0.1 l-1.7200000000000002,-0.1 l-2,-0.07 a124.68,124.68 0 0 0 -26.24,2.79 a72.27,72.27 0 0 0 -18.26,-1.6800000000000004 l-0.8700000000000002,0 l-1,0.06000000000000002 l-0.6400000000000002,0 l-1.29,0.12000000000000002 c-0.4300000000000001,0 -0.8700000000000002,0.09000000000000004 -1.3,0.15000000000000005 s-0.8800000000000002,0.11000000000000003 -1.31,0.18000000000000005 l-0.6600000000000003,0.11000000000000003 c-0.6500000000000002,0.11000000000000003 -1.31,0.23 -2,0.3700000000000001 q-0.3300000000000001,0.06000000000000002 -0.6600000000000003,0.15000000000000005 c-0.8700000000000002,0.19000000000000006 -1.7400000000000002,0.4200000000000001 -2.6,0.6800000000000004 c-0.4300000000000001,0.12000000000000002 -0.8600000000000002,0.26 -1.29,0.4100000000000001 c-0.22000000000000006,0.06000000000000002 -0.4300000000000001,0.14 -0.6400000000000002,0.22000000000000006 l-0.6400000000000002,0.23 l-0.6300000000000002,0.25 l-0.7500000000000002,0.3000000000000001 c-0.3800000000000001,0.16000000000000006 -0.7500000000000002,0.3300000000000001 -1.12,0.51 c-0.21000000000000005,0.09000000000000004 -0.4200000000000001,0.19000000000000006 -0.6200000000000002,0.3000000000000001 s-0.4100000000000001,0.2 -0.6000000000000002,0.3100000000000001 a27.75,27.75 0 0 0 -6.21,4.38 l-0.51,0.4900000000000001 l-0.5,0.51 c-0.17,0.17 -0.3300000000000001,0.3500000000000001 -0.4900000000000001,0.53 a23.82,23.82 0 0 0 -1.82,2.25 c-0.16000000000000006,0.21000000000000005 -0.3100000000000001,0.4200000000000001 -0.46,0.6400000000000002 a26.69,26.69 0 0 0 -1.7200000000000002,2.92 c-0.13,0.24000000000000005 -0.25,0.4900000000000001 -0.3700000000000001,0.7300000000000002 a32.7,32.7 0 0 0 -2,5.25 q-0.28,1 -0.51,2 S415.53640270233154,377.29509567260743 397.97640270233154,384.0550956726074 c-4.67,1.8 -9.07,3.43 -12.75,4.66 c-1.07,0.3600000000000001 -2.07,0.6900000000000004 -3,1 a26.7,26.7 0 0 1 -6.25,1.44 a19.67,19.67 0 0 0 -3,0.28 c-8.07,1.31 -21.9,7 -23.41,12.71 a3.6900000000000004,3.6900000000000004 0 0 0 -0.1,1.4 s0,0.07 0,0.11000000000000003 c1,7 -6,6 -6,6 s-2.5,18.5 -6,23.5 c-2.5300000000000002,3.6 -4.26,11.63 -4.48,17.69 v0 a19.61,19.61 0 0 0 0.4400000000000001,5.63 c0,0.05000000000000002 0,0.1 0,0.14 c0.4,1.34 -0.56,5 -2.19,9.69 c-1.77,5.15 -4.35,11.55 -6.83,17.59 c-3.74,9.12 -7.26,17.4 -7.48,19.22 c-0.09000000000000004,0.81 -0.3500000000000001,2.26 -0.7100000000000002,4.13 c-1.46,7.62 -4.7,22.13 -6.3,28 c-1.19,4.38 -2.92,10.38 -4.11,14.5 c0,0.12000000000000002 -0.07,0.24000000000000005 -0.1,0.3500000000000001 L350.53640270233154,551.6550956726074 l0,0.8400000000000002 h0.14 z" fill="#651e32" id="svg_46" class=""/><path d="M366.97640270233154,434.6250956726075 s57,29.5 77.5,26 z" opacity="0.1" id="svg_47" class=""/><path d="M482.9764027023316,422.6250956726075 s55.5,18 74,20.5 S482.9764027023316,422.6250956726075 482.9764027023316,422.6250956726075 z" opacity="0.1" id="svg_48" class=""/><path d="M544.5364027023315,364.7050956726074 c-29,5.34 -83.6,4.19 -107.2,3.38 c8.65,-31 50.83,-20.46 50.83,-20.46 C540.3764027023316,337.2050956726074 544.3764027023316,358.8250956726074 544.5364027023315,364.7050956726074 z" opacity="0.1" id="svg_49" class=""/><path d="M544.5364027023315,362.7050956726074 c-29,5.34 -83.6,4.19 -107.2,3.38 c8.65,-31 50.83,-20.46 50.83,-20.46 C540.3764027023316,335.2050956726074 544.3764027023316,356.8250956726074 544.5364027023315,362.7050956726074 z" fill="#651e32" id="svg_50" class=""/><path d="M698.4764027023316,499.3750956726075 s34.16,-5.25 34.83,9.75 s-17.42,25.48 -17.42,25.48 z" fill="#f7d4ae" id="svg_51" class="" fill-opacity="1"/><path d="M526.8264027023315,328.5050956726074 a47,47 0 0 1 -4.5,1.7400000000000002 c-10.78,3.72 -21.65,7.47 -33,8.83 s-23.26,0.16000000000000006 -33.16,-5.5 a28.77,28.77 0 0 1 -3,-1.9500000000000002 c-1.1,-22 -3.75,-43.5 -3.75,-43.5 s87,-41 77,-8.5 C522.4364027023315,292.7550956726074 523.7864027023315,311.1950956726074 526.8264027023315,328.5050956726074 z" opacity="0.1" id="svg_52" class=""/><path d="M474.0564027023315,191.8950956726074 a9.47,9.47 0 0 1 -8.32,-1.75 l2.08,2.89 a8.47,8.47 0 0 1 -6.78,-2.25 a34.08,34.08 0 0 0 0.3200000000000001,7.75 a14.52,14.52 0 0 1 -9.56,-3 a4.42,4.42 0 0 0 2.64,4.3100000000000005 a14.34,14.34 0 0 0 -15.6,10.71 l5.22,0.4800000000000001 a18.47,18.47 0 0 0 -10.44,6.37 c-1.6,2 -2.8200000000000003,4.5600000000000005 -2.12,7 s4.08,4 5.92,2.26 a27.94,27.94 0 0 0 -6.1,22.79 a14.47,14.47 0 0 1 0.46,5.26 c-0.3300000000000001,1.6500000000000004 -1.37,3.08 -1.8900000000000001,4.69 c-1,2.92 -0.05000000000000002,6.09 0.8400000000000002,9 l4.69,15.42 c1.7000000000000002,5.57 3.39,11.15 5.61,16.54 a82.08,82.08 0 0 1 4,10.51 c1.26,4.84 1.31,10.14 4,14.37 a19.93,19.93 0 0 0 7.18,6.33 c9.89,5.66 21.84,6.86 33.16,5.5 s22.18,-5.11 32.95,-8.83 a31,31 0 0 0 6.84,-3 c7.45,-4.88 9.11,-14.86 10.5,-23.65 c1.55,-9.8 3.62,-19.58 7.29,-28.8 c2.18,-5.49 5,-11.06 4.52,-16.94 c-0.6100000000000002,-7.8100000000000005 -6.79,-14.14 -8.32,-21.82 a19,19 0 0 1 0.07,-7.77 a17.66,17.66 0 0 0 0.79,-4.7 c-0.17,-3.22 -2.81,-5.7 -5.29,-7.77 Q530.6464027023316,207.05509567260742 522.0564027023315,201.05509567260742 c-0.2900000000000001,-2 2.43,-2.8600000000000003 3.66,-4.44 c1.7400000000000002,-2.23 -0.06000000000000002,-5.77 -2.7,-6.8100000000000005 s-5.6,-0.3600000000000001 -8.35,0.3300000000000001 a6.59,6.59 0 0 0 -11.55,-5.11 a10.2,10.2 0 0 0 -8.42,-6.08 c-6.63,-0.52 -6.76,4.55 -11,7.34 s-7.74,-0.8900000000000002 -11,-3.5700000000000003 A9.28,9.28 0 0 0 474.0564027023315,191.8950956726074 z" fill="#383838" id="svg_53" class="" fill-opacity="1"/><path d="M723.8064027023315,529.3750956726075 s-0.8900000000000002,2.12 -2.5300000000000002,5.19 a69,69 0 0 1 -9,13.17 l-0.27,0.2900000000000001 l-1.62,0 l-57.74,0.53 l-1.3800000000000001,0 l-0.17,-0.2 l-11.2,-13.29 L635.6764027023315,530.0550956726074 l-0.17,-0.21000000000000005 l-0.3600000000000001,-0.4200000000000001 l-0.2,-0.24000000000000005 l-0.26,-0.3100000000000001 l-8.21,-9.74 l3,-12.5 l5.11,-21.06 l0.13,-0.51 l1,-4 l0.7100000000000002,-3 l2.38,-9.78 l8.16,-33.65 l14.5,7.5 l15.29,27 l8.21,14.5 h4.5 c0.8500000000000002,0 2.8,1.6400000000000001 4.76,3.5300000000000002 c0.7000000000000002,0.6700000000000004 1.4,1.3800000000000001 2,2 c1.78,1.84 3.19,3.42 3.19,3.42 s7.29,0.16000000000000006 9.25,5.9 a7,7 0 0 1 0.25,0.8500000000000002 a40.3,40.3 0 0 0 2.5300000000000002,6.5600000000000005 c1.29,2.81 2.91,6 4.55,9.19 c3.05,5.85 6.15,11.42 7.29,13.44 l0.14,0.25 z" fill="#651e32" id="svg_54" class=""/><path d="M637.9064027023315,484.2250956726074 l-0.1,1.4300000000000002 v0.1 l-0.17,2.3 l-1.33,18.51 l-1.61,22.3 l-0.46,6.28 l-1,13.44 v0.17 l-107,1 L350.64640270233156,551.6550956726074 l0,0.8400000000000002 h-0.14 l0,-0.8400000000000002 v-0.28 l0.45,-14.36 l0.8600000000000002,-28.06 l0.7400000000000002,-23.79 l0.07,-2.37 a10.53,10.53 0 0 1 11.42,-10.17 c4.72,0.4 10.85,0.8900000000000002 18.18,1.4100000000000001 l3,0.22000000000000006 c42.33,2.94 120.56,6.74 199.5,2 c1.6600000000000001,-0.09000000000000004 3.33,-0.19000000000000006 5,-0.3100000000000001 c12.24,-0.77 24.47,-1.7600000000000002 36.58,-3 a10.53,10.53 0 0 1 11.6,11.23 z" opacity="0.1" id="svg_55" class=""/><path d="M350.6164027023315,552.4950956726075 l0,-0.8400000000000002 l175.62,-1.9100000000000001 l107,-1 H633.5364027023315 v-0.17 l1,-13.44 l0.4300000000000001,-6 l1.6400000000000001,-22.61 l1.29,-17.9 l0,-0.4400000000000001 a10.620000000000001,10.620000000000001 0 0 0 -0.11000000000000003,-2.47 a0.3000000000000001,0.3000000000000001 0 0 0 0,-0.1 a10.39,10.39 0 0 0 -2,-4.6400000000000015 a10.54,10.54 0 0 0 -9.42,-4 c-12.11,1.24 -24.34,2.23 -36.58,3 c-1.6700000000000004,0.12000000000000002 -3.34,0.22000000000000006 -5,0.3100000000000001 c-78.94,4.69 -157.17,0.8900000000000002 -199.5,-2 l-3,-0.22000000000000006 c-7.33,-0.52 -13.46,-1 -18.18,-1.4100000000000001 a10.54,10.54 0 0 0 -11.24,8.53 a11,11 0 0 0 -0.18000000000000005,1.6400000000000001 l-0.6800000000000004,22.16 L351.07640270233156,537.0550956726074 l-0.4400000000000001,14.36 v0.28 l0,0.8400000000000002 z" fill="#67656d" id="svg_56" class="" fill-opacity="1"/><path d="M638.2064027023315,491.2350956726074 l-1.23,15.33 l-1.83,22.85 l-0.46,5.72 l-1,12.81 l-0.06000000000000002,0.6400000000000002 v0.17 h0 l-0.15000000000000005,1.48 l0.11000000000000003,-1.48 h-0.2900000000000001 l-107,1 L350.64640270233156,551.6550956726074 v-0.28 l0.4900000000000001,-14.36 l1,-28.06 l0.6400000000000002,-18.65 A6.36,6.36 0 0 1 355.83640270233155,485.0550956726074 a6.25,6.25 0 0 1 3.7800000000000002,-0.9 c2.1,0.17 4.68,0.3700000000000001 7.69,0.5900000000000002 c4.8900000000000015,0.3600000000000001 10.92,0.78 17.94,1.22 c13,0.8200000000000002 29.31,1.7000000000000002 48,2.42 c52,2 122.2,2.67 188.88,-3.17 c3,-0.26 6.1,-0.55 9.13,-0.8400000000000002 a6.26,6.26 0 0 1 3.48,0.6600000000000003 a5.16,5.16 0 0 1 0.8600000000000002,0.54 a6.14,6.14 0 0 1 2,2.46 a3.56,3.56 0 0 1 0.25,0.6100000000000002 A6.28,6.28 0 0 1 638.2064027023315,491.2350956726074 z" opacity="0.1" id="svg_57" class=""/><path d="M298.97640270233154,504.9250956726074 v3.19 a6.13,6.13 0 0 1 -3.5,5.54 l-40.1,0.77 a6.12,6.12 0 0 1 -3.5700000000000003,-5.57 v-3 z" opacity="0.1" id="svg_58" class=""/><polygon points="299.4764051437378,515.5351066589355 247.2264051437378,516.5351066589355 247.2264051437378,507.8650932312012 299.4764051437378,506.8650932312012 299.4764051437378,515.5351066589355 " fill="#3f3d56" id="svg_59" class=""/><polygon points="299.4764051437378,515.5351066589355 247.2264051437378,516.5351066589355 247.2264051437378,507.8650932312012 299.4764051437378,506.8650932312012 299.4764051437378,515.5351066589355 " opacity="0.1" id="svg_60" class=""/><polygon points="301.4764051437378,515.5351066589355 249.2264051437378,516.5351066589355 249.2264051437378,507.8650932312012 301.4764051437378,506.8650932312012 301.4764051437378,515.5351066589355 " fill="#3e3d42" id="svg_61" class="" fill-opacity="1"/><g opacity="0.1" id="svg_62" class=""><path d="M474.4664027023315,188.61509567260742 a9.75,9.75 0 0 1 -1.8900000000000001,-4.34 a9.49,9.49 0 0 0 0.4200000000000001,4.6 A9,9 0 0 0 474.4664027023315,188.61509567260742 z" id="svg_63"/><path d="M461.76640270233156,195.2550956726074 a35.12,35.12 0 0 1 -0.3700000000000001,-3.7 c0,1.23 0,2.47 0,3.71 z" id="svg_64"/><path d="M543.2664027023316,228.62509567260742 a18.34,18.34 0 0 1 0.3600000000000001,-2.6500000000000004 a18,18 0 0 0 0.8,-4.69 a6.16,6.16 0 0 0 -0.16000000000000006,-1.06 c-0.17,0.92 -0.4400000000000001,1.84 -0.6400000000000002,2.75 A19.14,19.14 0 0 0 543.2664027023316,228.62509567260742 z" id="svg_65"/><path d="M522.4664027023315,197.72509567260744 l1.09,0.79 a19.71,19.71 0 0 0 2.5700000000000003,-2.22 a3.67,3.67 0 0 0 0.3800000000000001,-3.64 a3,3 0 0 1 -0.3800000000000001,0.6400000000000002 C524.8964027023316,194.87509567260742 522.1764027023315,195.74509567260742 522.4664027023315,197.72509567260744 z" id="svg_66"/><path d="M440.29640270233153,207.34509567260744 a12.32,12.32 0 0 0 -0.8700000000000002,2.2800000000000002 a18.16,18.16 0 0 1 5,-1.8900000000000001 z" id="svg_67"/><path d="M454.0864027023315,196.46509567260745 a14.83,14.83 0 0 1 -1.8800000000000003,-1.23 a4.25,4.25 0 0 0 0.09000000000000004,1.18 A11.86,11.86 0 0 1 454.0864027023315,196.46509567260745 z" id="svg_68"/><path d="M551.8564027023316,255.3850956726074 c-0.4100000000000001,4.85 -2.67,9.52 -4.5,14.12 c-3.67,9.22 -5.74,19 -7.29,28.81 c-1.3900000000000001,8.79 -3,18.77 -10.5,23.64 a30,30 0 0 1 -6.83,3 c-10.78,3.73 -21.65,7.47 -33,8.83 s-23.26,0.17 -33.16,-5.49 a20,20 0 0 1 -7.18,-6.33 c-2.67,-4.23 -2.72,-9.53 -4,-14.37 a82.21,82.21 0 0 0 -4,-10.52 c-2.21,-5.38 -3.91,-11 -5.6,-16.53 q-2.35,-7.71 -4.69,-15.43 a28.81,28.81 0 0 1 -1.1400000000000001,-4.75 c-0.3900000000000001,2.56 0.3700000000000001,5.24 1.1400000000000001,7.75 q2.34,7.73 4.69,15.43 c1.6900000000000004,5.57 3.39,11.15 5.6,16.53 a82.21,82.21 0 0 1 4,10.52 c1.26,4.84 1.31,10.14 4,14.37 a20,20 0 0 0 7.18,6.33 c9.9,5.66 21.84,6.85 33.16,5.49 s22.18,-5.1 33,-8.83 a30,30 0 0 0 6.83,-3 c7.45,-4.87 9.11,-14.85 10.5,-23.64 c1.55,-9.81 3.62,-19.59 7.29,-28.81 c2.18,-5.48 5,-11.05 4.52,-16.94 C551.8764027023316,255.5050956726074 551.8564027023316,255.4450956726074 551.8564027023316,255.3850956726074 z" id="svg_69"/><path d="M432.16640270233154,251.5150956726074 s0,-0.07 0,-0.11000000000000003 a14,14 0 0 0 -0.46,-5.25 a26.59,26.59 0 0 1 -0.3900000000000001,-3.3200000000000003 a27.35,27.35 0 0 0 0.3900000000000001,6.32 C431.8664027023315,249.93509567260742 432.04640270233153,250.72509567260744 432.16640270233154,251.5150956726074 z" id="svg_70"/><path d="M435.2164027023315,227.05509567260742 a27.74,27.74 0 0 1 2.6100000000000003,-3.67 c-1.83,1.75 -5.21,0.19000000000000006 -5.92,-2.24 a5.83,5.83 0 0 0 0,3 A4.39,4.39 0 0 0 435.2164027023315,227.05509567260742 z" id="svg_71"/></g><path d="M684.9764027023316,483.6250956726075 s3.17,11.5 0,21.5 S684.9764027023316,483.6250956726075 684.9764027023316,483.6250956726075 z" opacity="0.1" id="svg_72" class=""/><path d="M698.4764027023316,495.3550956726074 s1.33,14.6 -1.6700000000000004,17.19 S698.4764027023316,495.3550956726074 698.4764027023316,495.3550956726074 z" opacity="0.1" id="svg_73" class=""/><line x1="199.86640453338623" y1="342.8250846862793" x2="301.4764051437378" y2="341.8250846862793" fill="none" stroke="#651e32" stroke-miterlimit="10" stroke-width="2" id="svg_74" class=""/><line x1="199.86640453338623" y1="355.2950859069824" x2="301.4764051437378" y2="354.3050956726074" fill="none" stroke="#651e32" stroke-miterlimit="10" stroke-width="2" id="svg_75" class=""/><line x1="199.86640453338623" y1="367.77509689331055" x2="301.4764051437378" y2="366.77509689331055" fill="none" stroke="#651e32" stroke-miterlimit="10" stroke-width="2" id="svg_76" class=""/></g></svg>