<svg xmlns="http://www.w3.org/2000/svg" xmlns:xlink="http://www.w3.org/1999/xlink" data-name="Layer 1" width="1118.030029296875" height="765.719970703125" style=""><rect id="backgroundrect" width="100%" height="100%" x="0" y="0" fill="none" stroke="none"/><defs><linearGradient id="a5826235-76eb-40dc-ae18-c7de67d692d4" x1="0.5000243186950684" y1="1.0000114440917969" x2="0.5000243186950684" y2="0.00002972093534481246"><stop offset="0" stop-color="gray" stop-opacity="0.25"/><stop offset="0.54" stop-color="gray" stop-opacity="0.12"/><stop offset="1" stop-color="gray" stop-opacity="0.1"/></linearGradient><linearGradient id="svg_82" x1="0.0859375" y1="0.06640625"><stop stop-color="#4a90d6" stop-opacity="1" offset="0"/><stop stop-color="#b56f29" stop-opacity="1" offset="1"/></linearGradient></defs><title>quitting time</title><g class="currentLayer" style=""><title>Layer 1</title><path d="M649.5799983215333,113.22000061035158 c-71.67,-2.2800000000000002 -139.94,-23.52 -205.12,-46.75 s-129.76,-49 -199.72,-61.28 c-45,-7.92 -96.45,-9 -132.71,13.1 c-34.88,21.3 -46.16,58.08 -52.22,92.21 c-4.5600000000000005,25.67 -7.24,52.69 5.25,76.73 c8.68,16.68 24.08,30.71 34.73,46.69 c37.07,55.62 10.870000000000001,124.2 -29.3,178.5 C51.649998321533204,437.86000061035156 29.79999832153321,462.2000006103516 15.259998321533203,489.3100006103516 S-5.990001678466797,547.5000006103515 6.719998321533204,575.1600006103515 c12.61,27.42 42.65,48 75.2,62.5 c66.1,29.42 144,37.84 220,42.61 C470.0099983215332,690.8600006103516 639.0099983215332,686.2500006103515 807.6399983215332,681.6800006103516 c62.39,-1.7000000000000002 125,-3.41 186.43,-12.27 c34.08,-4.92 69.27,-12.72 94,-31.56 c31.42,-23.91 39.2,-64.41 18.15,-94.39 c-35.3,-50.3 -132.92,-62.8 -157.6,-116.77 C935.0099983215332,396.9700006103516 949.0099983215332,363.86000061035156 968.7399983215332,336.32000061035154 c42.34,-59.11 113.32,-111 117.06,-178.54 c2.5700000000000003,-46.41 -31.55,-92.89 -84.31,-114.85 c-55.3,-23 -132,-20.12 -172.79,18 C786.6899983215332,100.14000061035156 712.8699983215332,115.24000061035156 649.5799983215333,113.22000061035158 z" fill="#651e32" opacity="0.1" id="svg_1" class=""/><ellipse cx="802.9000244140625" cy="744.719970703125" rx="129" ry="21" fill="#651e32" opacity="0.1" id="svg_2"/><polygon points="295.39 389.56 295.07 407.2 292.45 550.22 270.04 602.71 192.8 603.59 192.8 397.68 273.41 391.3 295.39 389.56" fill="#434247" id="svg_3"/><polygon points="295.39 389.56 295.07 407.2 292.45 550.22 270.04 602.71 192.8 603.59 192.8 397.68 273.41 391.3 295.39 389.56" opacity="0.1" id="svg_4"/><polygon points="295.39 389.56 295.07 407.2 292.45 550.22 270.04 602.71 275.94 407.54 275.92 407.41 273.41 391.3 295.39 389.56" fill="#434247" id="svg_5"/><polygon points="273.41 391.3 295.39 389.56 295.07 407.2 275.92 407.41 192.8 408.34 192.8 397.68 273.41 391.3" opacity="0.1" id="svg_6"/><polygon points="989.68 397.68 989.68 602.4 971.7 602.4 899.76 549.93 899.76 391.91 964.03 385.87 967.97 387.68 971.7 389.4 989.68 397.68" fill="#434247" id="svg_7"/><rect x="971.7000122070312" y="387.67999267578125" width="17.979999542236328" height="214.72000122070312" opacity="0.1" id="svg_8"/><polygon points="989.68 387.68 989.68 399.45 971.7 399.66 899.76 400.45 899.76 391.91 964.03 385.87 967.97 387.68 971.7 389.4 971.7 387.68 989.68 387.68" opacity="0.1" id="svg_9"/><polygon points="989.68 381 989.68 397.68 106.13 407.54 106.13 386.31 189.26 369.5 912.73 364.2 989.68 381" fill="#434247" id="svg_10"/><polygon points="989.68 381 989.68 397.68 106.13 407.54 106.13 386.31 989.68 381" opacity="0.1" id="svg_11"/><ellipse cx="256.69000244140625" cy="374.8800048828125" rx="39.83000183105469" ry="2.549999952316284" opacity="0.1" id="svg_12"/><path d="M290.1199983215332,276.29000061035157 a15.18,15.18 0 0 0 -2,3.8 c-0.12000000000000001,0.33000000000000007 -0.24000000000000002,0.7100000000000001 -0.36000000000000004,1.07 a3.13,3.13 0 0 0 -0.7100000000000001,-0.24000000000000002 a9.8,9.8 0 0 0 -3.15,-0.28 q0,-0.6100000000000001 0.06000000000000001,-1.29 c0.13,-4.66 -0.42000000000000004,-11.16 -4.87,-8.41 c-4.26,2.6500000000000004 -1.22,7.06 1.53,9.91 c0.24000000000000002,0.25 0.48000000000000004,0.48000000000000004 0.7100000000000001,0.7000000000000001 c-2.51,1.8 -3,5.95 -3.41,10.29 s-4.1,9.1 -6.54,11.8 l-0.7000000000000001,0.7500000000000001 a8.92,8.92 0 0 0 -7.11,-1.83 q-0.17,-0.5700000000000001 -0.33000000000000007,-1.2 c-2,-7.15 -6.09,-19.54 -11.34,-22.26 l0.6900000000000002,-0.8700000000000001 c2.23,-2.92 4.74,-7.25 1,-8.36 s-4,3.7600000000000002 -3.83,7.4 c0,0.46 0.06000000000000001,0.8900000000000001 0.1,1.3 A5.46,5.46 0 0 0 246.0099983215332,280.4600006103516 c-0.18000000000000002,-0.22000000000000003 -0.36000000000000004,-0.44000000000000006 -0.5700000000000001,-0.6800000000000002 c-3,-3.55 -8.52,-9.17 -10.19,-4.91 c-1.55,4 3.3,9.1 6.72,12.08 l0.21000000000000002,0.19000000000000003 c-2.29,9.3 7.71,16.88 13.1,20.19 l0.6900000000000002,0.43000000000000005 c-7.43,8.75 -12,25.16 -12,25.16 l20.8,3.72 s13.79,-11.9 12,-23.08 l0.14,0 c13.78,-2.7600000000000002 16.92,-17.46 14.77,-26.18 l0.25,-0.1 a15.77,15.77 0 0 0 6.38,-4.83 C302.1699983215332,277.0800006103516 294.0799983215332,271.0300006103516 290.1199983215332,276.29000061035157 z" fill="#651e32" id="svg_13"/><path d="M290.1199983215332,276.29000061035157 a15.18,15.18 0 0 0 -2,3.8 c-0.12000000000000001,0.33000000000000007 -0.24000000000000002,0.7100000000000001 -0.36000000000000004,1.07 a3.13,3.13 0 0 0 -0.7100000000000001,-0.24000000000000002 a9.8,9.8 0 0 0 -3.15,-0.28 q0,-0.6100000000000001 0.06000000000000001,-1.29 c0.13,-4.66 -0.42000000000000004,-11.16 -4.87,-8.41 c-4.26,2.6500000000000004 -1.22,7.06 1.53,9.91 c0.24000000000000002,0.25 0.48000000000000004,0.48000000000000004 0.7100000000000001,0.7000000000000001 c-2.51,1.8 -3,5.95 -3.41,10.29 s-4.1,9.1 -6.54,11.8 l-0.7000000000000001,0.7500000000000001 a8.92,8.92 0 0 0 -7.11,-1.83 q-0.17,-0.5700000000000001 -0.33000000000000007,-1.2 c-2,-7.15 -6.09,-19.54 -11.34,-22.26 l0.6900000000000002,-0.8700000000000001 c2.23,-2.92 4.74,-7.25 1,-8.36 s-4,3.7600000000000002 -3.83,7.4 c0,0.46 0.06000000000000001,0.8900000000000001 0.1,1.3 A5.46,5.46 0 0 0 246.0099983215332,280.4600006103516 c-0.18000000000000002,-0.22000000000000003 -0.36000000000000004,-0.44000000000000006 -0.5700000000000001,-0.6800000000000002 c-3,-3.55 -8.52,-9.17 -10.19,-4.91 c-1.55,4 3.3,9.1 6.72,12.08 l0.21000000000000002,0.19000000000000003 c-2.29,9.3 7.71,16.88 13.1,20.19 l0.6900000000000002,0.43000000000000005 c-7.43,8.75 -12,25.16 -12,25.16 l20.8,3.72 s13.79,-11.9 12,-23.08 l0.14,0 c13.78,-2.7600000000000002 16.92,-17.46 14.77,-26.18 l0.25,-0.1 a15.77,15.77 0 0 0 6.38,-4.83 C302.1699983215332,277.0800006103516 294.0799983215332,271.0300006103516 290.1199983215332,276.29000061035157 z" opacity="0.1" id="svg_14"/><path d="M248.7099983215332,282.29000061035157 l-2.43,7.12 s-1.35,-0.9500000000000001 -3.06,-2.46 c-3.41,-3 -8.27,-8.12 -6.71,-12.08 c1.6700000000000002,-4.26 7.18,1.36 10.19,4.91 C247.90999832153318,281.20000061035154 248.7099983215332,282.29000061035157 248.7099983215332,282.29000061035157 z" fill="#651e32" id="svg_15"/><path d="M253.8399983215332,278.23000061035157 a35,35 0 0 1 -2.37,2.79 a37,37 0 0 1 -0.43000000000000005,-3.75 c-0.2,-3.64 0.18000000000000002,-8.48 3.83,-7.4 S256.0699983215332,275.31000061035155 253.8399983215332,278.23000061035157 z" fill="#651e32" id="svg_16"/><path d="M285.2099983215332,279.3500006103516 c-0.07,2.34 -0.30000000000000004,4.21 -0.30000000000000004,4.21 a28.6,28.6 0 0 1 -3,-2.71 c-2.75,-2.85 -5.8,-7.26 -1.53,-9.91 C284.7899983215332,268.19000061035155 285.3399983215332,274.69000061035155 285.2099983215332,279.3500006103516 z" fill="#651e32" id="svg_17"/><path d="M299.5799983215332,282.42000061035156 a15.77,15.77 0 0 1 -6.38,4.83 a18.3,18.3 0 0 1 -2.14,0.77 l-2.87,-4 a30.14,30.14 0 0 1 1.19,-3.91 a15.18,15.18 0 0 1 2,-3.8 C295.3499983215332,271.0300006103516 303.4399983215332,277.0800006103516 299.5799983215332,282.42000061035156 z" fill="#651e32" id="svg_18"/><path d="M246.6999983215332,279.7800006103516 c1.21,1.42 2,2.51 2,2.51 l-2.43,7.12 s-1.35,-0.9500000000000001 -3.06,-2.46 a13.870000000000001,13.870000000000001 0 0 1 2.74,-6.25 C246.1999983215332,280.37000061035155 246.4499983215332,280.06000061035155 246.6999983215332,279.7800006103516 z" opacity="0.1" id="svg_19"/><path d="M253.8399983215332,278.23000061035157 a35,35 0 0 1 -2.37,2.79 a37,37 0 0 1 -0.43000000000000005,-3.75 A4.88,4.88 0 0 1 253.8399983215332,278.23000061035157 z" opacity="0.1" id="svg_20"/><path d="M265.7999983215332,306.49000061035156 l-6.05,2.66 a35.85,35.85 0 0 1 -3.22,-1.82 c-6.36,-3.91 -19.14,-13.75 -10.57,-25.36 s15.72,9.21 18.53,19.39 C265.3399983215332,304.4000006103516 265.7999983215332,306.49000061035156 265.7999983215332,306.49000061035156 z" fill="#651e32" id="svg_21"/><path d="M281.8799983215332,280.86000061035156 a4.92,4.92 0 0 1 3.33,-1.5 c-0.07,2.34 -0.30000000000000004,4.21 -0.30000000000000004,4.21 A28.6,28.6 0 0 1 281.8799983215332,280.86000061035156 z" opacity="0.1" id="svg_22"/><path d="M293.1999983215332,287.25000061035155 a18.3,18.3 0 0 1 -2.14,0.77 l-2.87,-4 a30.14,30.14 0 0 1 1.19,-3.91 C291.22999832153323,281.17000061035156 292.5899983215332,283.86000061035156 293.1999983215332,287.25000061035155 z" opacity="0.1" id="svg_23"/><path d="M278.1799983215332,313.5300006103516 q-0.5,0.1 -1,0.18000000000000002 c-20.27,3.09 -6.68,-7.86 -6.68,-7.86 s0.91,-0.8400000000000001 2.15,-2.21 c2.44,-2.7 6.13,-7.43 6.55,-11.8 c0.6300000000000001,-6.57 1.37,-12.73 9.13,-10.92 S297.3799983215332,309.69000061035155 278.1799983215332,313.5300006103516 z" fill="#651e32" id="svg_24" class=""/><rect x="239.05999755859375" y="364.0199890136719" width="38.75" height="10.1899995803833" fill="#4E4D52" id="svg_25"/><rect x="232.89999389648438" y="330.9100036621094" width="50.630001068115234" height="35.560001373291016" fill="#4E4D52" id="svg_26"/><rect x="238.67999267578125" y="364.0199890136719" width="38.75" height="10.1899995803833" opacity="0.1" id="svg_27"/><rect x="232.74000549316406" y="330.9100036621094" width="50.630001068115234" height="35.560001373291016" opacity="0.1" id="svg_28"/><rect x="241.61000061035156" y="364.0199890136719" width="38.75" height="10.1899995803833" fill="#4E4D52" id="svg_29"/><path d="M264.4899983215332,301.36000061035156 c0.8500000000000001,3 1.31,5.13 1.31,5.13 l-6.05,2.66 a35.85,35.85 0 0 1 -3.22,-1.82 C258.8999983215332,304.3300006103516 261.5699983215332,302.06000061035155 264.4899983215332,301.36000061035156 z" opacity="0.1" id="svg_30"/><path d="M278.1799983215332,313.5300006103516 q-0.5,0.1 -1,0.18000000000000002 c-20.27,3.09 -6.68,-7.86 -6.68,-7.86 s0.91,-0.8400000000000001 2.15,-2.21 C276.4099983215332,306.67000061035156 278.0099983215332,310.0800006103516 278.1799983215332,313.5300006103516 z" opacity="0.1" id="svg_31"/><path d="M245.2099983215332,332.92000061035156 s11.36,-40.65 27.28,-28.12 S266.0099983215332,336.64000061035154 266.0099983215332,336.64000061035154 z" fill="#651e32" id="svg_32" class=""/><circle cx="250.9499969482422" cy="288.3399963378906" r="1.2699999809265137" opacity="0.1" id="svg_33"/><circle cx="250.83999633789062" cy="294.2900085449219" r="1.2699999809265137" opacity="0.1" id="svg_34"/><circle cx="287.7799987792969" cy="289.510009765625" r="1.2699999809265137" opacity="0.1" id="svg_35"/><circle cx="258.05999755859375" cy="319.9700012207031" r="1.2699999809265137" opacity="0.1" id="svg_36"/><circle cx="285.1199951171875" cy="299.3800048828125" r="1.2699999809265137" opacity="0.1" id="svg_37"/><circle cx="271.9599914550781" cy="312.5400085449219" r="1.2699999809265137" opacity="0.1" id="svg_38"/><circle cx="255.3000030517578" cy="290.8900146484375" r="1.2699999809265137" opacity="0.1" id="svg_39"/><circle cx="284.2699890136719" cy="293.3299865722656" r="1.2699999809265137" opacity="0.1" id="svg_40"/><circle cx="279.9200134277344" cy="303.20001220703125" r="1.2699999809265137" opacity="0.1" id="svg_41"/><circle cx="266.54998779296875" cy="319.0199890136719" r="1.2699999809265137" opacity="0.1" id="svg_42"/><circle cx="263.7900085449219" cy="312.760009765625" r="1.2699999809265137" opacity="0.1" id="svg_43"/><circle cx="257.2099914550781" cy="298.6400146484375" r="1.2699999809265137" opacity="0.1" id="svg_44"/><rect x="241.61000061035156" y="364.0199890136719" width="38.75" height="3.7200000286102295" opacity="0.1" id="svg_45"/><rect x="235.4499969482422" y="330.9100036621094" width="50.630001068115234" height="35.560001373291016" fill="#4E4D52" id="svg_46"/><circle cx="268.25" cy="324.75" r="1.2699999809265137" opacity="0.1" id="svg_47"/><circle cx="260.6000061035156" cy="326.3399963378906" r="1.2699999809265137" opacity="0.1" id="svg_48"/><path d="M382.0099983215332,466.7900006103515 s6.3100000000000005,8.25 -2.91,20.71 s-16.83,23 -13.76,30.74 c0,0 13.92,-23.14 25.24,-23.46 S394.4299983215332,480.7000006103516 382.0099983215332,466.7900006103515 z" fill="#651e32" id="svg_49"/><path d="M382.0099983215332,466.7900006103515 a10.49,10.49 0 0 1 1.29,2.58 c11.05,13 16.94,25.11 6.3100000000000005,25.41 c-9.89,0.28 -21.76,18 -24.6,22.44 a8.67,8.67 0 0 0 0.33000000000000007,1 s13.92,-23.14 25.24,-23.46 S394.4299983215332,480.7000006103516 382.0099983215332,466.7900006103515 z" opacity="0.1" id="svg_50"/><path d="M393.6999983215332,477.3000006103516 c0,2.91 -0.33000000000000007,5.26 -0.7300000000000001,5.26 s-0.7300000000000001,-2.35 -0.7300000000000001,-5.26 s0.41000000000000003,-1.53 0.81,-1.53 S393.6999983215332,474.4000006103515 393.6999983215332,477.3000006103516 z" fill="#ffd037" id="svg_51"/><path d="M397.7199983215332,480.77000061035153 c-2.55,1.3900000000000001 -4.77,2.23 -5,1.8800000000000001 s1.7200000000000002,-1.77 4.27,-3.16 s1.54,-0.38000000000000006 1.73,0 S400.2699983215332,479.38000061035154 397.7199983215332,480.77000061035153 z" fill="#ffd037" id="svg_52"/><path d="M348.6399983215332,466.7900006103515 s-6.32,8.25 2.91,20.71 s16.83,23 13.75,30.74 c0,0 -13.91,-23.14 -25.24,-23.46 S336.1799983215332,480.7000006103516 348.6399983215332,466.7900006103515 z" fill="#651e32" id="svg_53"/><path d="M348.6399983215332,466.7900006103515 a10.08,10.08 0 0 0 -1.29,2.58 c-11.06,13 -16.94,25.11 -6.32,25.41 c9.9,0.28 21.77,18 24.61,22.44 c-0.1,0.35000000000000003 -0.21000000000000002,0.6900000000000002 -0.3400000000000001,1 c0,0 -13.91,-23.14 -25.24,-23.46 S336.1799983215332,480.7000006103516 348.6399983215332,466.7900006103515 z" opacity="0.1" id="svg_54"/><path d="M336.8999983215332,477.3000006103516 c0,2.91 0.33000000000000007,5.26 0.7300000000000001,5.26 s0.7300000000000001,-2.35 0.7300000000000001,-5.26 s-0.41000000000000003,-1.53 -0.81,-1.53 S336.8999983215332,474.4000006103515 336.8999983215332,477.3000006103516 z" fill="#ffd037" id="svg_55"/><path d="M332.8799983215332,480.77000061035153 c2.55,1.3900000000000001 4.77,2.23 5,1.8800000000000001 s-1.71,-1.77 -4.26,-3.16 s-1.55,-0.38000000000000006 -1.7400000000000002,0 S330.3299983215332,479.38000061035154 332.8799983215332,480.77000061035153 z" fill="#ffd037" id="svg_56"/><ellipse cx="365.30999755859375" cy="571.239990234375" rx="65.9800033569336" ry="10.130000114440918" fill="#651e32" opacity="0.1" id="svg_57"/><path d="M399.2599983215332,507.12000061035155 l-0.32000000000000006,2.58 l-0.44000000000000006,3.64 l-0.18000000000000002,1.51 l-0.44000000000000006,3.6500000000000004 l-0.2,1.51 l-0.44000000000000006,3.64 l-5.05,41.39 c-0.45,3.7 -6.48,6.58 -13.77,6.58 H352.1799983215332 c-7.28,0 -13.31,-2.88 -13.76,-6.58 l-5.06,-41.39 l-0.44000000000000006,-3.64 l-0.18000000000000002,-1.51 l-0.46,-3.6500000000000004 l-0.18000000000000002,-1.51 l-0.44000000000000006,-3.64 l-0.32000000000000006,-2.58 c-0.25,-2.09 3,-3.85 7.14,-3.85 h53.65 C396.2499983215332,503.27000061035153 399.5199983215332,505.0300006103515 399.2599983215332,507.12000061035155 z" fill="#494949" id="svg_58" class="" transform="translate(-0.8871561884880066,0) " fill-opacity="1"/><polygon points="398.95 509.69 398.5 513.33 332.11 513.33 331.66 509.69 398.95 509.69" fill="#6d6d6d" id="svg_59" class="" fill-opacity="1"/><polygon points="397.43285113573074,514.8499755859375 396.9928486943245,518.489990234375 331.852834045887,518.489990234375 331.40285235643387,514.8499755859375 397.43285113573074,514.8499755859375 " fill="#919191" id="svg_60" class="" transform="translate(0.8871561884880066,0) " fill-opacity="1"/><polygon points="397.69 520.01 397.25 523.65 333.37 523.65 332.92 520.01 397.69 520.01" fill="#b6b6b6" id="svg_61" class="" fill-opacity="1"/><path d="M565.4699983215332,366.54000061035157 v2.06 H504.55999832153316 v-1.6700000000000002 a20,20 0 0 0 13.06,-18.78 a20,20 0 0 0 -11.68,-18.19 h59.12 a20,20 0 0 0 0.41000000000000003,36.58 z" fill="#c8cad7" id="svg_62"/><path d="M565.0599983215332,329.9600006103516 A20,20 0 0 0 554.0099983215332,343.23000061035157 H517.0099983215332 a20.06,20.06 0 0 0 -11.07,-13.27 z" opacity="0.1" id="svg_63"/><path d="M434.8099983215332,319.4600006103516 v11.57 c0,6.38 4.68,11.56 10.44,11.56 H624.4599983215332 c5.76,0 10.44,-5.18 10.44,-11.56 V319.4600006103516 z" fill="#c8cad7" id="svg_64"/><path d="M565.4699983215332,366.54000061035157 v2.06 H504.55999832153316 v-1.6700000000000002 a20.16,20.16 0 0 0 4.7,-2.5 h52.48 A20.12,20.12 0 0 0 565.4699983215332,366.54000061035157 z" opacity="0.1" id="svg_65"/><rect x="484.44000244140625" y="365.07000732421875" width="101.16999816894531" height="6.099999904632568" rx="3.049999952316284" fill="#c8cad7" id="svg_66"/><path d="M634.8999983215332,192.7700006103516 a10.44,10.44 0 0 0 -10.44,-10.44 H445.2499983215332 a10.44,10.44 0 0 0 -10.44,10.44 V321.7100006103516 H634.8999983215332 z" fill="#434247" id="svg_67"/><path d="M629.4399983215332,197.42000061035156 v110.8 a5.14,5.14 0 0 1 -5.14,5.14 H445.4099983215332 a5.14,5.14 0 0 1 -5.14,-5.14 V197.42000061035156 A5.09,5.09 0 0 1 441.0099983215332,194.86000061035156 a5.15,5.15 0 0 1 4.45,-2.5700000000000003 H624.2999983215332 A5.14,5.14 0 0 1 629.4399983215332,197.42000061035156 z" fill="#651e32" id="svg_68"/><circle cx="534.8599853515625" cy="187.3000030517578" r="2.4100000858306885" fill="#fff" id="svg_69"/><circle cx="534.8599853515625" cy="331.510009765625" r="5.940000057220459" fill="#fff" id="svg_70"/><path d="M629.4399983215332,197.42000061035156 H440.2699983215332 a5.14,5.14 0 0 1 5.14,-5.14 H624.2999983215332 A5.14,5.14 0 0 1 629.4399983215332,197.42000061035156 z" fill="#4e4d52" id="svg_71" class="" fill-opacity="1"/><circle cx="445.4200134277344" cy="194.85000610351562" r="1.2799999713897705" fill="#ededf4" id="svg_72"/><circle cx="449.2699890136719" cy="194.85000610351562" r="1.2799999713897705" fill="#ededf4" id="svg_73"/><circle cx="453.1199951171875" cy="194.85000610351562" r="1.2799999713897705" fill="#ededf4" id="svg_74"/><path d="M657.0099983215332,421.86000061035156 s12,4.88 26.73,10.73 a38.17,38.17 0 0 1 1.1600000000000001,5.14 c0.26,3.4 7,8.19 7,8.19 s12.5,2.26 21.91,4.91 c7.3100000000000005,2 8.32,-2 7.38,-3.56 l2.19,0.8400000000000001 c0.49000000000000005,20.24 1.05,35 1.05,35 s3.2,0 8.25,0.24000000000000002 c0.06000000000000001,0.6400000000000001 0.12000000000000001,1.3 0.19000000000000003,2 c1.9300000000000002,20 5.48,53 8.23,55.74 c4,3.87 2.23,32.39 0.6900000000000002,37.43 s0,41.31 0,41.31 s6.19,22.16 5.67,46.34 s6.7,36.78 6.7,36.78 l2.59,0.19000000000000003 c0,0.6700000000000002 -0.08000000000000002,1.33 -0.11000000000000001,2 c-0.12000000000000001,2.19 -0.21000000000000002,4.38 -0.24000000000000002,6.37 a15.66,15.66 0 0 1 -3,8.42 A51.77,51.77 0 0 0 745.0099983215332,739.6800006103516 a43.2,43.2 0 0 0 -0.6400000000000001,4.8 c0,0.4 -0.05000000000000001,0.6200000000000001 -0.05000000000000001,0.6200000000000001 s2.4,7.06 24.92,9.41 s19.26,-13.94 19.26,-13.94 s0.11000000000000001,-0.46 0.25,-1.3 a48.78,48.78 0 0 0 0.09000000000000002,-16.66 c-0.79,-4.3 -0.11000000000000001,-11.74 0.8700000000000001,-18.56 c0.1,-0.7100000000000001 0.21000000000000002,-1.4100000000000001 0.31000000000000005,-2.1 a12.58,12.58 0 0 0 5.17,-2.4 c7.05,-6.43 0,-57.55 0,-57.55 s-12.72,-41.81 -9.620000000000001,-47.86 s6.7,-20.65 6.7,-20.65 V522.6100006103516 c5,-8.07 7.25,-19.11 8.18,-29.16 c0.06000000000000001,-0.6700000000000002 0.12000000000000001,-1.33 0.17,-2 c4.17,0.08000000000000002 8.17,-0.07 11.8,-0.32000000000000006 l1,2 c5.9,11.43 11.9,22.75 13.37,24.42 c3.09,3.5300000000000002 0.51,19.65 0,27.71 s5.67,24.18 5.67,24.18 c-7.73,4.53 -9.28,57.93 -9.28,57.93 s5.67,13.1 -6.19,27.71 s-7.22,42.32 -5.67,41.31 c0.41000000000000003,-0.27 2.92,0.14 6.49,0.7300000000000001 a17.14,17.14 0 0 1 -3.4,6.52 c-3.83,4.76 -5.14,12.22 -5.52,18.18 a65.11,65.11 0 0 0 0,9.33 l8.59,6 s5.33,0 5.33,4.71 s13.06,9.4 13.06,9.4 s19.42,5.37 34.38,0 c4.85,-1.7400000000000002 6.33,-4.73 5.76,-8.36 c-1.18,-7.59 -11.33,-18 -18.65,-25.56 c-4.94,-5.13 -7.19,-11.93 -8.19,-17.82 c-0.11000000000000001,-0.6300000000000001 -0.2,-1.25 -0.28,-1.86 a5.9,5.9 0 0 0 1.59,-1.31 c6.19,-7.5600000000000005 12.89,-28.21 12.89,-28.21 S860.3099983215332,647.0400006103515 867.0099983215332,627.8600006103516 c5,-14.19 11.07,-47.45 13.89,-63.74 a63.55,63.55 0 0 0 0.56,-17.9 c-1.3,-11.89 -3.3,-33.92 -2.59,-51.36 c0.24000000000000002,-5.69 0.07,-14.74 -0.32000000000000006,-25.35 v-0.15000000000000002 c3.67,-6.93 11.63,-18.24 24.91,-19.17 c19.25,-1.35 9.28,-11.92 9.28,-11.92 S901.4499983215333,358.94000061035155 894.0099983215332,344.86000061035156 a5.8100000000000005,5.8100000000000005 0 0 0 -0.39000000000000007,-0.7100000000000001 c-1.1,-1.75 -2.3,-5.25 -3.5700000000000003,-9.92 c-7.33,-27.05 -16.71,-93.69 -16.71,-93.69 l-1.15,-16.21 c11.48,5.63 32.78,15.9 41.37,18.9 c12,4.2 28.7,1.51 32.83,-12.26 s-13.06,-41.64 -13.06,-41.64 c-2.5300000000000002,-9.88 -20,-30.45 -29.09,-40.66 c-0.8800000000000001,-1.33 -1.75,-2.6500000000000004 -2.6,-3.91 c-2.34,-3.49 -4.45,-6.57 -5.79,-8.38 l-0.13,0.25 c-0.33000000000000007,-0.46 -0.6400000000000001,-0.8900000000000001 -0.91,-1.25 l-0.22000000000000003,0.44000000000000006 c-3.25,-6 -6.9,-12.17 -9.73,-15.48 c-6.58,-7.68 -35.28,-15.94 -38.12,-13.67 c-2.07,1.6500000000000001 6.52,8.85 12.53,13.27 l-5.74,-3.88 l-12.83,-11.1 l-5.65,-3.8200000000000003 a5.41,5.41 0 0 0 -0.7400000000000001,-0.42000000000000004 A40.52,40.52 0 0 0 827.7899983215332,66.86000061035156 c-0.4,-0.55 -0.8300000000000001,-1.1 -1.26,-1.6300000000000001 c5.91,-4.92 7.78,-13.05 7.78,-20.2 v-0.27 a14.33,14.33 0 0 0 -3.43,-7.21 c0.09000000000000002,0.18000000000000002 0.18000000000000002,0.38000000000000006 0.26,0.5700000000000001 a11.61,11.61 0 0 0 -8.65,-4.45 c-5,-0.08000000000000002 -9.19,3.2 -13.58,5.45 a35.09,35.09 0 0 1 -29.25,1 c-2.71,-1.1600000000000001 -5.44,-2.7 -8.38,-2.46 S766.0099983215332,39.79000061035157 764.0099983215332,41.76000061035157 a47.69,47.69 0 0 0 -11.1,16.42 c-0.7400000000000001,1.81 -1.4,3.74 -2.83,5.1 a19.93,19.93 0 0 1 -3.52,2.3 A18.91,18.91 0 0 0 738.1699983215332,77.86000061035156 a26.44,26.44 0 0 0 1.51,14.85 a22.44,22.44 0 0 0 5.54,8.6 c1.87,1.73 4.11,3 6.09,4.63 a21.91,21.91 0 0 1 2.51,2.4 a47.59,47.59 0 0 0 -23.67,13.12 a62.06,62.06 0 0 0 -12,16.12 c-8.37,15.73 -13.45,25.52 -16.47,31.73 c-1.51,0.46 -2.44,0.6800000000000002 -2.44,0.6800000000000002 s-11.34,10.07 -11.17,38.95 h0 l-8.77,57.76 v29.55 S668.0099983215332,328.32000061035154 669.8599983215332,354.86000061035156 c0,0.36000000000000004 0,0.7100000000000001 0.07,1.06 l-0.92,4.51 a10.39,10.39 0 0 0 -2,6.68 a8.55,8.55 0 0 0 0.18000000000000002,2.44 l-4.6,22.72 l0.8700000000000001,0.92 L661.0899983215332,399.86000061035156 C652.1599983215332,414.13000061035154 657.0099983215332,421.86000061035156 657.0099983215332,421.86000061035156 zm66.32,-162 c0.5700000000000001,0.39000000000000007 0.8900000000000001,0.5900000000000001 0.8900000000000001,0.5900000000000001 s5,44.77 2,71.39 l-10.53,-0.7200000000000001 l-5,-1.54 l1.79,-14.23 S718.8899983215332,277.86000061035156 723.2899983215332,259.86000061035156 zm41.38,-129.95 l1,-1.54 c-0.21000000000000002,0.55 -0.42000000000000004,1.09 -0.6400000000000001,1.59 zM717.1799983215332,331.62000061035155 l5.45,0.56 l3.45,0.7200000000000001 q-0.09000000000000002,0.7200000000000001 -0.18000000000000002,1.4100000000000001 zM834.3099983215332,138.06000061035155 a12.16,12.16 0 0 0 -0.1,-1.49 l4.28,2.54 l0.26,0.16000000000000003 c-1.48,-0.43000000000000005 -3,-0.81 -4.44,-1.1600000000000001 zM867.5299983215332,157.86000061035156 a32.11,32.11 0 0 0 -1.9,-2.67 c3,0.7200000000000001 4.86,1.1400000000000001 4.86,1.1400000000000001 a13.28,13.28 0 0 1 7.12,0.7200000000000001 a39.72,39.72 0 0 0 2.47,4.32 l7.9,15.3 s-1.7200000000000002,0.17 -5.16,-1.51 S867.5299983215332,157.86000061035156 867.5299983215332,157.86000061035156 zM717.4399983215332,445.86000061035156 l2.47,1 h0 C719.3599983215332,447.0300006103515 718.4799983215332,446.63000061035154 717.4399983215332,445.86000061035156 z" fill="url(#a5826235-76eb-40dc-ae18-c7de67d692d4)" id="svg_75"/><path d="M802.1228421330452,117.15000061035155 c3.18,1.87 3.2800000000000002,9.86 2.79,16.27 c-0.3500000000000001,4.69 -1,8.53 -1,8.53 l20.69,50.3 s7.67,-35.84 7.79,-51.84 a11.86,11.86 0 0 0 -0.5700000000000002,-3.72 C828.2128421330452,125.16000061035157 807.9328421330451,118.76000061035157 802.1228421330452,117.15000061035155 z" fill="#6d6d6d" id="svg_76" class="" fill-opacity="1"/><path d="M801.5199983215332,116.75000061035155 s0.56,0.13 1.53,0.4 A3,3 0 0 0 801.5199983215332,116.75000061035155 z" fill="#67647e" id="svg_77"/><path d="M808.6899983215332,729.0800006103516 l8.33,6 s5.17,0 5.17,4.67 s12.66,9.33 12.66,9.33 s18.84,5.33 33.34,0 c4.7,-1.73 6.14,-4.69 5.59,-8.3 c-1.15,-7.53 -11,-17.82 -18.09,-25.37 c-4.79,-5.09 -7,-11.84 -7.94,-17.68 a52.82,52.82 0 0 1 -0.56,-12.65 l-30.5,-2.17 a20.14,20.14 0 0 1 0,14.29 a18.58,18.58 0 0 1 -2.67,4.58 c-3.72,4.72 -5,12.13 -5.36,18 A65.93,65.93 0 0 0 808.6899983215332,729.0800006103516 z" fill="#dadada" id="svg_78" class="" fill-opacity="1"/><path d="M746.0099983215332,742.9100006103515 s2.33,7 24.17,9.34 s18.67,-13.84 18.67,-13.84 s0.11000000000000001,-0.46 0.25,-1.29 a49.76,49.76 0 0 0 0.08000000000000002,-16.54 c-0.7600000000000001,-4.26 -0.1,-11.65 0.8500000000000001,-18.42 c1.12,-8.06 2.6500000000000004,-15.25 2.6500000000000004,-15.25 l-33.84,2.5 s-0.5900000000000001,6.890000000000001 -0.93,13.85 c-0.11000000000000001,2.17 -0.2,4.34 -0.23,6.32 a15.78,15.78 0 0 1 -2.92,8.35 a52.17,52.17 0 0 0 -8.08,19.6 a44.57,44.57 0 0 0 -0.6200000000000001,4.76 C746.0099983215332,742.6900006103516 746.0099983215332,742.9100006103515 746.0099983215332,742.9100006103515 z" fill="#dadada" id="svg_79" class="" fill-opacity="1"/><path d="M808.6899983215332,729.0800006103516 l8.33,6 s5.17,0 5.17,4.67 s12.66,9.33 12.66,9.33 s18.84,5.33 33.34,0 c4.7,-1.73 6.14,-4.69 5.59,-8.3 c-0.45,0 -0.8800000000000001,0.06000000000000001 -1.24,0.07 c-5.94,0.19000000000000003 -11.72,1.79 -17.63,2.3200000000000003 a87.64,87.64 0 0 1 -10.12,0.16000000000000003 a35.3,35.3 0 0 1 -5,-0.39000000000000007 c-4,-0.7100000000000001 -7.71,-2.7800000000000002 -11.28,-4.8100000000000005 a6.4,6.4 0 0 1 -2.25,-1.7600000000000002 a8.6,8.6 0 0 1 -1,-2.68 c-1.26,-4.52 -4.78,-8.14 -8.82,-10.52 a38.46,38.46 0 0 0 -7.77,-3.35 A65.93,65.93 0 0 0 808.6899983215332,729.0800006103516 z" fill="#919191" id="svg_80" class="" fill-opacity="1"/><path d="M746.0099983215332,742.9100006103515 s2.33,7 24.17,9.34 s18.67,-13.84 18.67,-13.84 s0.11000000000000001,-0.46 0.25,-1.29 c-1,0.52 -1.85,1 -2.24,1.22 c-2,1.17 -3.79,2.7800000000000002 -5.87,3.87 c-5,2.63 -11,1.85 -16.64,1 c-2.6500000000000004,-0.4 -5.3,-0.8 -7.94,-1.29 a20.08,20.08 0 0 1 -5.8100000000000005,-1.7200000000000002 a34.62,34.62 0 0 1 -3.92,-2.66 a44.57,44.57 0 0 0 -0.6200000000000001,4.76 C746.0099983215332,742.6900006103516 746.0099983215332,742.9100006103515 746.0099983215332,742.9100006103515 z" fill="#919191" id="svg_81" class="" fill-opacity="1"/><path d="M816.6899983215332,682.9100006103515 a20.14,20.14 0 0 1 0,14.29 c8.75,1.49 25.06,4.5 31.06,0.53 a52.82,52.82 0 0 1 -0.56,-12.65 z" opacity="0.1" id="svg_84"/><path d="M757.9199983215332,703.2600006103515 c6.18,0.44000000000000006 22.81,1.31 32.12,-1.1 c1.12,-8.06 2.6500000000000004,-15.25 2.6500000000000004,-15.25 l-33.84,2.5 S758.2599983215332,696.3000006103516 757.9199983215332,703.2600006103515 z" opacity="0.1" id="svg_85"/><path d="M732.6328421330452,470.0800006103516 s0.52,6.25 1.35,15 c1.87,19.86 5.32,52.65 8,55.32 c3.84,3.85 2.17,32.15 0.6700000000000004,37.15 s0,41 0,41 a183,183 0 0 1 5.5,46 c-0.5,24 6.5,36.5 6.5,36.5 s33,3 39.83,-3.38 s0,-57.12 0,-57.12 S782.1228421330452,599.0800006103516 785.1228421330452,593.0800006103516 s6.5,-20.5 6.5,-20.5 v-50.5 c4.85,-8 7,-19 7.93,-28.94 a152.17,152.17 0 0 0 0.07,-25.56 s6.21,12.7 12.54,25.26 c5.72,11.35 11.54,22.58 13,24.24 c3,3.5 0.5,19.5 0,27.5 s5.5,24 5.5,24 c-7.5,4.5 -9,57.5 -9,57.5 s5.5,13 -6,27.5 s-7,42 -5.5,41 s32,7.5 38,0 s12.5,-28 12.5,-28 s-3,-21 3.5,-40 c4.82,-14.08 10.73,-47.09 13.47,-63.26 A64.45,64.45 0 0 0 878.1228421330452,545.5600006103516 c-1.26,-11.81 -3.2,-33.67 -2.51,-51 c0.23,-5.65 0.07,-14.63 -0.3100000000000001,-25.16 c-1.29,-36.1 -5.19,-90.34 -5.19,-90.34 l-27.1,-18.36 L825.1228421330452,348.5800006103516 l-4.38,0.6700000000000004 L739.1228421330452,361.86000061035156 l-3.17,40.26 z" fill="#6d6d6d" id="svg_86" class="" fill-opacity="1"/><path d="M843.9199983215332,360.7200006103516 l1.4300000000000002,7.86 s12,57.5 14.5,87 s13,21 13,21 a46.76,46.76 0 0 1 3.36,-7.16 c-1.29,-36.1 -5.19,-90.34 -5.19,-90.34 z" opacity="0.1" id="svg_87"/><path d="M758.1899983215332,142.58000061035156 s56,44.83 45.66,35.83 c-5.66,-4.94 -1.81,-26 2.83,-44 c3.8200000000000003,-14.85 8.17,-27.63 8.17,-27.63 s-48.88,-45.73 -45.33,-8.34 c1.25,13.18 0.21000000000000002,22.55 -1.6600000000000001,29.17 C764.4299983215332,139.74000061035156 758.1899983215332,142.58000061035156 758.1899983215332,142.58000061035156 z" fill="#f7d4ae" id="svg_88" class="" fill-opacity="1"/><path d="M762.8499983215332,130.66000061035157 l35.5,27.75 l10.33,-11.5 s8.84,-3.83 9.5,0.5 s3.17,31 -2,33.5 s-11.83,4.17 -17.66,3.34 s-12.34,-7.34 -16.67,-9.84 s-20.33,-15.5 -20.33,-15.5 l-8,-11.16 z" opacity="0.1" id="svg_89"/><path d="M762.8499983215332,131.66000061035157 l35.5,27.75 l10.33,-11.5 s8.84,-3.83 9.5,0.5 s3.17,31 -2,33.5 s-11.83,4.17 -17.66,3.34 s-12.34,-7.34 -16.67,-9.84 s-20.33,-15.5 -20.33,-15.5 l-8,-11.16 z" fill="#a36468" id="svg_90"/><path d="M733.5199983215332,470.0800006103516 s0.52,6.25 1.35,15 c11,0.42000000000000004 32.34,1.7200000000000002 47.32,5.640000000000001 a82.1,82.1 0 0 0 18.26,2.39 a152.17,152.17 0 0 0 0.07,-25.56 s6.21,12.7 12.54,25.26 a132.25,132.25 0 0 0 16.13,-2.09 l-6.67,-86.67 s0.22000000000000003,-29.09 -0.8800000000000001,-54.83 L740.0099983215332,361.86000061035156 l-3.17,40.26 z" opacity="0.1" id="svg_91"/><path d="M794.8499983215332,156.08000061035156 s-24.25,-26.51 -30,-22.3 s-9.47,14.47 -9.47,14.47 l19.75,21.66 z" opacity="0.1" id="svg_92"/><path d="M793.8499983215332,155.08000061035156 s-24.25,-26.51 -30,-22.3 s-9.47,14.47 -9.47,14.47 l19.75,21.66 z" fill="#a36468" id="svg_93"/><path d="M814.0099983215332,172.07000061035157 L800.0099983215332,154.52000061035156 s2.2,-16.59 7.32,-14.47 S814.0099983215332,150.66000061035157 814.0099983215332,150.66000061035157 z" opacity="0.1" id="svg_94"/><path d="M815.0099983215332,170.91000061035157 L801.0799983215333,153.36000061035156 s2.2,-16.59 7.32,-14.47 S815.0099983215332,149.50000061035155 815.0099983215332,149.50000061035155 z" fill="#a36468" id="svg_95"/><path d="M750.8499983215332,139.41000061035157 s28.71,31 45.85,33.08 c1.55,0.19000000000000003 3.1,0.45 4.63,0.7600000000000001 c4.48,0.8800000000000001 14.24,0 12.69,-25.63 l2.16,-4.54 l13.34,8.17 l4.5,36.66 l8,94 l11.83,104.67 s-36.33,-3.5 -46.5,5.67 s-13,-50 -13,-50 l-27.83,-120 l-29.67,-77.17 z" opacity="0.1" id="svg_96"/><path d="M736.8499983215332,149.08000061035156 l29.67,77.17 l27.83,120 s2.84,59.16 13,50 c3.3200000000000003,-3 9.44,-4.640000000000001 16.17,-5.49 a146.63,146.63 0 0 1 24.92,-0.56 c3.3200000000000003,0.18000000000000002 5.41,0.38000000000000006 5.41,0.38000000000000006 L842.0099983215332,285.9100006103516 l-8,-94 l-4.5,-36.66 l-13.33,-8.17 L814.0099983215332,151.62000061035155 c0,0.6700000000000002 0.07,1.33 0.1,2 c0.9400000000000001,23.68 -8.43,24.52 -12.78,23.66 c-1.54,-0.31000000000000005 -3.08,-0.5700000000000001 -4.640000000000001,-0.7600000000000001 c-12.14,-1.49 -30.08,-17.46 -39.51,-26.64 c-3.89,-3.8 -6.34,-6.44 -6.34,-6.44 z" opacity="0.1" id="svg_97"/><path d="M736.8499983215332,146.08000061035156 l29.67,77.17 l27.83,120 s2.84,59.16 13,50 c3.3200000000000003,-3 9.44,-4.640000000000001 16.17,-5.49 a146.63,146.63 0 0 1 24.92,-0.56 c3.3200000000000003,0.18000000000000002 5.41,0.38000000000000006 5.41,0.38000000000000006 L842.0099983215332,282.9100006103516 l-8,-94 l-4.5,-36.66 l-13.33,-8.17 L814.0099983215332,148.62000061035155 c0,0.6700000000000002 0.07,1.33 0.1,2 c0.9400000000000001,23.68 -8.43,24.52 -12.78,23.66 c-1.54,-0.31000000000000005 -3.08,-0.5700000000000001 -4.640000000000001,-0.7600000000000001 c-12.14,-1.49 -30.08,-17.46 -39.51,-26.64 c-3.89,-3.8 -6.34,-6.44 -6.34,-6.44 z" fill="#651e32" id="svg_98"/><path d="M814.0099983215332,148.62000061035155 c0,0.6700000000000002 0.07,1.33 0.1,2 l0.23,0.16000000000000003 c3.52,2.3200000000000003 9.17,41.5 9.17,41.5 l7.33,99.83 l13.5,74.5 s1.77,8.49 4.09,20.62 c3.3200000000000003,0.18000000000000002 5.41,0.38000000000000006 5.41,0.38000000000000006 L842.0099983215332,282.9100006103516 l-8,-94 l-4.5,-36.66 l-13.33,-8.17 z" opacity="0.1" id="svg_99"/><path d="M804.8299983215333,141.95000061035157 s8,6.48 11.52,8.8 s9.17,41.5 9.17,41.5 l7.33,99.83 l13.5,74.5 s12,57.5 14.5,87 s13,21 13,21 s7.84,-23 26.5,-24.33 s9,-11.84 9,-11.84 s-10.93,-78.77 -18.12,-92.8 a6.48,6.48 0 0 0 -0.38000000000000006,-0.7000000000000001 c-1.06,-1.7400000000000002 -2.23,-5.21 -3.46,-9.85 c-7.11,-26.84 -16.2,-93 -16.2,-93 l-5.67,-82 C851.0099983215332,136.41000061035157 806.0099983215332,137.23000061035157 806.0099983215332,137.23000061035157 z" fill="#4e4d52" id="svg_100" class="" fill-opacity="1"/><path d="M736.8499983215332,146.08000061035156 l29.67,77.17 l27.83,120 s2.84,59.16 13,50 c3.3200000000000003,-3 9.44,-4.640000000000001 16.17,-5.49 c-0.12000000000000001,-20.34 -0.7400000000000001,-56.84 -3.67,-72.18 a203.82,203.82 0 0 1 -3.16,-42.5 l-36.34,-79.17 s-27.33,-33.69 -27.5,-38.51 c-0.06000000000000001,-1.78 1.8800000000000001,-5.08 4.34,-8.55 c-3.89,-3.8 -6.34,-6.44 -6.34,-6.44 z" opacity="0.1" id="svg_101"/><path d="M828.1799983215332,488.75000061035155 l-6.66,-86.67 s0.5,-64.67 -3.67,-86.5 a203.44,203.44 0 0 1 -3.17,-42.5 l-36.33,-79.17 s-27.33,-33.69 -27.5,-38.51 s14.31,-20.85 14.31,-20.85 s-31.64,3.7 -35.81,17.86 s-27,19.67 -27,19.67 s-11,10 -10.83,38.67 s35,51.16 35,51.16 s5.83,54 0.8300000000000001,78.34 s-0.6700000000000002,142.66 -0.6700000000000002,142.66 s33.5,0.3400000000000001 54.5,5.84 S828.1799983215332,488.75000061035155 828.1799983215332,488.75000061035155 z" fill="#4e4d52" id="svg_102" class="" fill-opacity="1"/><path d="M778.8499983215332,351.25000061035155 l-25.67,97.16 s-3.5,8.67 -21.5,2 s-70.33,-28.33 -70.33,-28.33 s-4.67,-7.67 4,-21.83 l26.17,-76.67 z" fill="#b07473" id="svg_103"/><polygon points="745.65 394.21 704.15 348.58 677.65 337.83 666.77 392.7 717.15 447.45 745.65 394.21" fill="#e1e7ef" id="svg_104"/><path d="M701.2999983215332,409.45000061035154 s12.34,7.25 15.59,7.5 s14.73,21.92 9.88,21.75 s-16.13,-6 -15,-3 s8.48,12 10.620000000000001,11.15 s3.13,6.6 -6,4 s-21.25,-4.88 -21.25,-4.88 s-6.5,-4.75 -6.75,-8.12 s-5.87,-21.13 -5.87,-21.13 z" fill="#f7d4ae" id="svg_105" class="" fill-opacity="1"/><path d="M899.4099983215332,153.45000061035157 s-10.68,-23.05 -17.06,-30.68 s-34.21,-15.82 -37,-13.57 s14,14.89 17,16.51 s-19.39,16.67 -19.84,17 s-17.5,-1.52 -8.75,4.23 s34.62,11.61 34.62,11.61 a13,13 0 0 1 10,2.39 C883.3899983215332,164.58000061035156 899.4099983215332,153.45000061035157 899.4099983215332,153.45000061035157 z" fill="#f7d4ae" id="svg_106" class="" fill-opacity="1"/><path d="M677.2399983215332,410.61000061035156 a69.18,69.18 0 0 0 5.66,13.35 c2.5,-2.26 26.37,-10.13 26.37,-10.13 l-2.6500000000000004,-4.09 l-4.32,-6.66 s-21.28,-4.62 -24.9,0 C676.1799983215332,404.63000061035154 676.3999983215332,407.49000061035156 677.2399983215332,410.61000061035156 z" opacity="0.1" id="svg_107"/><path d="M676.2399983215332,409.61000061035156 a69.18,69.18 0 0 0 5.66,13.35 c2.5,-2.26 26.37,-10.13 26.37,-10.13 l-2.6500000000000004,-4.09 l-4.32,-6.66 s-21.28,-4.62 -24.9,0 C675.1799983215332,403.63000061035154 675.3999983215332,406.49000061035156 676.2399983215332,409.61000061035156 z" fill="#a36468" id="svg_108"/><path d="M875.0099983215332,158.66000061035157 a35.16,35.16 0 0 0 2.7,4.94 c3.85,6.07 9.68,13.23 9.68,13.23 s22.74,-10.46 22.74,-10.92 s-6.9,-11.33 -12.51,-19.9 c-2.27,-3.46 -4.32,-6.52 -5.62,-8.31 c0,0 -8.49,17.76 -16.87,17.88 C872.9399983215332,155.61000061035156 874.1099983215332,156.49000061035156 875.0099983215332,158.66000061035157 z" opacity="0.1" id="svg_109"/><path d="M876.0099983215332,159.66000061035157 a35.16,35.16 0 0 0 2.7,4.94 c3.85,6.07 9.68,13.23 9.68,13.23 s22.74,-10.46 22.74,-10.92 s-6.9,-11.33 -12.51,-19.9 c-2.27,-3.46 -4.32,-6.52 -5.62,-8.31 c0,0 -8.49,17.76 -16.87,17.88 C873.9399983215332,156.61000061035156 875.1099983215332,157.49000061035156 876.0099983215332,159.66000061035157 z" fill="#a36468" id="svg_110"/><polygon points="747.77 343.08 750.69 334.33 709.71 331.45 725.02 333.08 744.52 337.26 743.02 343.08 747.77 343.08" fill="#b07473" id="svg_111"/><path d="M676.2399983215332,409.61000061035156 c4.52,-2.13 16.58,-6.5600000000000005 29.38,-0.8700000000000001 l-4.32,-6.66 s-21.28,-4.62 -24.9,0 C675.1799983215332,403.63000061035154 675.3999983215332,406.49000061035156 676.2399983215332,409.61000061035156 z" opacity="0.1" id="svg_112"/><path d="M673.8499983215332,355.5800006103516 c0.1,1.45 0.19000000000000003,2.9 0.28,4.34 c0.25,4.41 0.42000000000000004,8.78 0.53,13 c0.5,19.54 -0.31000000000000005,35.66 -0.31000000000000005,35.66 s15.5,-9.33 32,-1.5 L708.0099983215332,375.4600006103516 l0,-0.55 l1.6900000000000002,-13.83 l5.48,-44.67 s10.33,-62 13.5,-64.33 s-23.5,-52.5 -23.5,-52.5 l-13.67,11.17 L683.0099983215332,268.0800006103516 v29.33 S672.0099983215332,329.25000061035155 673.8499983215332,355.5800006103516 z" fill="#4e4d52" id="svg_113" class="" fill-opacity="1"/><path d="M875.5199983215332,158.25000061035155 l3.2,6.35 c3.85,6.07 9.68,13.23 9.68,13.23 s22.74,-10.46 22.74,-10.92 s-6.9,-11.33 -12.51,-19.9 c-1.73,-2 -2.7800000000000002,-3.1 -2.7800000000000002,-3.1 C902.5199983215332,160.41000061035157 875.5199983215332,158.25000061035155 875.5199983215332,158.25000061035155 z" opacity="0.1" id="svg_114"/><path d="M855.2928421330452,155.40000061035155 l9.34,4.68 s11.5,15.5 14.83,17.17 s5,1.5 5,1.5 l-9.83,-19.5 s27,2.16 20.33,-14.34 c0,0 30.17,33 33.5,46.34 c0,0 16.67,27.66 12.67,41.33 s-20.17,16.33 -31.84,12.17 s-47.5,-22.5 -47.5,-22.5 z" fill="#4e4d52" id="svg_115" class="" fill-opacity="1"/><path d="M889.6799983215332,187.91000061035157 s25.17,28.17 23.17,32 S891.0099983215332,193.5800006103516 889.6799983215332,187.91000061035157 z" opacity="0.1" id="svg_116"/><path d="M776.0999983215332,112.08000061035156 s-35.42,-10.67 -55.42,27.83 S700.0099983215332,181.08000061035156 701.0099983215332,182.91000061035157 s39.83,-8.33 42,-3.83 s-22,23 -22,23 l93.66,71 l-39.35,-83.64 a63,63 0 0 0 -10.46,-16.07 c-6.47,-7.24 -15.32,-18.33 -12.19,-21.75 c2.7600000000000002,-3 7.18,-10.83 13.14,-19.84 C770.1799983215332,125.17000061035156 777.1199983215332,117.72000061035158 776.0999983215332,112.08000061035156 z" opacity="0.2" id="svg_117"/><path d="M776.2128421330452,111.08000061035156 s-35.42,-10.67 -55.42,27.83 S700.1228421330452,180.08000061035156 701.1228421330452,181.91000061035157 s39.83,-8.33 42,-3.83 s-22,23 -22,23 l92.66,72 l-38.35,-84.64 a63,63 0 0 0 -10.46,-16.07 c-6.47,-7.24 -15.32,-18.33 -12.19,-21.75 c2.7600000000000002,-3 7.18,-10.83 13.14,-19.84 C770.2928421330452,124.17000061035156 777.2328421330452,116.72000061035158 776.2128421330452,111.08000061035156 z" fill="#6d6d6d" id="svg_118" class="" fill-opacity="1"/><circle cx="769.8499755859375" cy="281.12713623046875" r="7.329999923706055" fill="#414042" id="svg_120" class="" fill-opacity="1"/><circle cx="768.9628295898438" cy="325.739990234375" r="7.329999923706055" fill="#424242" id="svg_121" class="" fill-opacity="1"/><path d="M674.6599983215332,372.92000061035156 c4.22,1 24.23,0.55 33.33,2.54 l0,-0.55 l1.6900000000000002,-13.83 c-10.26,-1.28 -32.56,-3.71 -35.58,-1.1600000000000001 C670.1899983215332,363.25000061035155 669.6299983215332,371.7700006103516 674.6599983215332,372.92000061035156 z" fill="#67647e" id="svg_122"/><path d="M674.6599983215332,373.92000061035156 c4.22,1 24.23,0.55 33.33,2.54 l0,-0.55 l1.6900000000000002,-13.83 c-10.26,-1.28 -32.56,-3.71 -35.58,-1.1600000000000001 C670.1899983215332,364.25000061035155 669.6299983215332,372.7700006103516 674.6599983215332,373.92000061035156 z" opacity="0.1" id="svg_123" class="" fill="#ebeb1a" fill-opacity="1"/><circle cx="679.02001953125" cy="366.239990234375" r="4.420000076293945" fill="#444053" id="svg_125" class=""/><path d="M762.5199983215332,383.9100006103516 l-18.67,63.67 s-5,2.33 -5,-1.83 S762.5199983215332,383.9100006103516 762.5199983215332,383.9100006103516 z" fill="#fff" opacity="0.1" id="svg_126"/><path d="M769.6799983215332,124.48000061035157 a39.81,39.81 0 0 0 3.6900000000000004,2.63 c6.35,4 12,9.44 20.1,9.44 a40.93,40.93 0 0 0 13.21,-2.17 c3.8200000000000003,-14.85 8.17,-27.63 8.17,-27.63 s-48.88,-45.73 -45.33,-8.34 C770.7699983215332,111.59000061035155 771.5499983215332,117.86000061035156 769.6799983215332,124.48000061035157 z" opacity="0.1" id="svg_127"/><path d="M752.4099983215332,93.49000061035156 a41.06,41.06 0 1 0 41.06,-41.06 A40.87,40.87 0 0 0 752.4099983215332,93.49000061035156 z" fill="#f7d4ae" id="svg_128" class="" fill-opacity="1"/><path d="M816.7399983215332,127.86000061035156 a4.640000000000001,4.640000000000001 0 0 0 1.92,2.25 l6.52,4 l12.19,7.41 l19.29,11.72 q0.6800000000000002,0.41000000000000003 1.3800000000000001,0.7500000000000001 a16.6,16.6 0 0 0 14.63,0.2 a12,12 0 0 0 6.83,-8.52 a14.23,14.23 0 0 0 -5.22,-14 a0.92,0.92 0 0 0 -0.36000000000000004,-0.19000000000000003 a35.26,35.26 0 0 1 -11.4,-5.57 l-12.14,-8.4 l-10.84,-9.91 l-5.48,-3.79 a5.11,5.11 0 0 0 -5.51,-0.2 C822.9299983215332,106.86000061035156 811.7399983215332,115.22000061035158 816.7399983215332,127.86000061035156 z" fill="#e1e7ef" id="svg_129"/><path d="M825.1799983215332,134.05000061035156 l12.19,7.41 c2.54,-10.24 9,-17.47 14.61,-22.93 l-12.44,-11 C830.0799983215333,112.22000061035158 826.3199983215331,127.86000061035156 825.1799983215332,134.05000061035156 z" fill="#a36468" id="svg_130"/><path d="M858.0099983215332,153.93000061035156 a16.6,16.6 0 0 0 14.63,0.2 a12,12 0 0 0 6.83,-8.52 a14.23,14.23 0 0 0 -5.22,-14 a30.73,30.73 0 0 0 -8.3,5.21 a23.32,23.32 0 0 0 -7.18,11.3 A24,24 0 0 0 858.0099983215332,153.93000061035156 z" opacity="0.1" id="svg_131"/><path d="M752.4099983215332,93.49000061035156 a40.87,40.87 0 0 0 3.8200000000000003,17.31 a23.18,23.18 0 0 1 5.52,8.76 c2.7800000000000002,3.38 3.87,5.29 7.58,7.63 c1.49,-1.57 4.85,-2.52 5.46,-4.55 c1.55,-5.23 0.6700000000000002,-10.82 0.5900000000000001,-16.27 c0,-2.42 0.3400000000000001,-5.28 2.47,-6.44 c1.77,-1 4,-0.28 5.74,0.7000000000000001 s3.47,2.25 5.47,2.48 c3,0.3400000000000001 5.74,-1.77 7.42,-4.25 s2.6500000000000004,-5.38 4.24,-7.92 c2.1,-3.35 5.2,-5.92 8.25,-8.42 c3.49,-2.88 6.88,-6.07 10.6,-8.65 c2.22,-1.55 4.88,-2.27 7.07,-3.83 l0.35000000000000003,-0.26 a41.06,41.06 0 0 0 -74.58,23.71 z" opacity="0.1" id="svg_132"/><path d="M833.3099983215332,48.10000061035156 c-0.8700000000000001,-5.76 -5.640000000000001,-11.17 -11.46,-11.27 c-4.8100000000000005,-0.08000000000000002 -8.91,3.18 -13.17,5.41 a33.28,33.28 0 0 1 -28.37,1 c-2.6100000000000003,-1.15 -5.27,-2.68 -8.12,-2.44 s-5.12,2.1 -7.1,4 a47.62,47.62 0 0 0 -10.76,16.3 c-0.7100000000000001,1.8 -1.36,3.71 -2.74,5.07 a20.3,20.3 0 0 1 -3.42,2.27 a18.85,18.85 0 0 0 -8.09,12.17 a26.89,26.89 0 0 0 1.47,14.75 a22.65,22.65 0 0 0 5.37,8.53 c1.82,1.71 4,3 5.91,4.59 a23.65,23.65 0 0 1 8,21.89 c5.32,1.22 10.42,-3.54 12,-8.77 s0.6700000000000002,-10.81 0.5900000000000001,-16.27 c0,-2.42 0.3400000000000001,-5.27 2.47,-6.43 c1.77,-1 4,-0.28 5.74,0.7000000000000001 s3.46,2.24 5.47,2.48 c3,0.3400000000000001 5.74,-1.77 7.42,-4.25 s2.64,-5.38 4.24,-7.92 c2.09,-3.35 5.2,-5.92 8.25,-8.42 c3.49,-2.88 6.88,-6.07 10.59,-8.65 c2.23,-1.55 4.890000000000001,-2.27 7.08,-3.83 C831.2599983215332,64.30000061035156 833.3099983215332,55.66000061035156 833.3099983215332,48.10000061035156 z" fill="#484848" id="svg_133" class="" fill-opacity="1"/><path d="M801.5199983215332,116.75000061035155 s0.56,0.13 1.53,0.4 A3,3 0 0 0 801.5199983215332,116.75000061035155 z" opacity="0.1" id="svg_134"/><g opacity="0.1" id="svg_135"><path d="M770.7899983215332,118.37000061035155 c1.55,-5.23 0.6700000000000002,-10.82 0.5900000000000001,-16.27 c0,-2.42 0.3400000000000001,-5.28 2.47,-6.44 c1.77,-1 4,-0.28 5.74,0.7000000000000001 s3.46,2.25 5.47,2.48 c3,0.3400000000000001 5.74,-1.7600000000000002 7.42,-4.25 s2.64,-5.38 4.24,-7.92 c2.09,-3.35 5.2,-5.92 8.25,-8.42 c3.49,-2.87 6.88,-6.07 10.59,-8.65 c2.23,-1.55 4.890000000000001,-2.27 7.08,-3.83 c6.62,-4.74 8.67,-13.38 8.67,-20.93 a14,14 0 0 0 -1.33,-4.16 A14.31,14.31 0 0 1 833.3099983215332,47.86000061035156 c0,7.55 -2,16.19 -8.67,20.93 c-2.19,1.56 -4.85,2.2800000000000002 -7.08,3.83 c-3.71,2.58 -7.1,5.78 -10.59,8.65 c-3.05,2.5 -6.16,5.07 -8.25,8.42 c-1.6,2.54 -2.55,5.44 -4.24,7.92 s-4.44,4.59 -7.42,4.25 c-2,-0.23 -3.7,-1.51 -5.47,-2.48 s-4,-1.6600000000000001 -5.74,-0.7000000000000001 c-2.13,1.1600000000000001 -2.51,4 -2.47,6.44 c0.08000000000000002,5.45 1,11 -0.5900000000000001,16.27 s-6.66,10 -12,8.76 a20.9,20.9 0 0 0 0.31000000000000005,-2.84 C765.5499983215332,126.93000061035156 769.4599983215332,122.86000061035156 770.7899983215332,118.37000061035155 z" id="svg_136"/><path d="M744.9199983215332,100.65000061035155 c1.82,1.71 4,3 5.91,4.59 a22.8,22.8 0 0 1 5.21,6.3100000000000005 a22.33,22.33 0 0 0 -3.21,-3.31 c-1.92,-1.59 -4.09,-2.88 -5.91,-4.59 a19.52,19.52 0 0 1 -3.64,-4.78 A18.4,18.4 0 0 0 744.9199983215332,100.65000061035155 z" id="svg_137"/></g><path d="M800.1599983215332,457.61000061035156 c0.7300000000000001,2.17 1.77,4.29 1.9100000000000001,6.58 c0.24000000000000002,3.89 -2.14,7.52 -2.31,11.42 c-0.2,4.54 2.56,8.61 5.2,12.3 c-3.13,0 -6.55,-1.08 -8.14,-3.77 a12.29,12.29 0 0 1 -1.17,-3.29 c-2.83,-11.29 -5.58,-23.64 -0.6600000000000001,-34.18 a15.11,15.11 0 0 1 3.25,-4.88 C799.0699983215331,447.11000061035156 798.3699983215332,452.3400006103516 800.1599983215332,457.61000061035156 z" opacity="0.1" id="svg_138"/><path d="M878.3799983215332,377.93000061035156 l8.31,-11.21 c2,-2.71 4.07,-5.53 4.79,-8.82 c0.78,-3.6100000000000003 -0.13,-7.35 -0.25,-11 c0,-0.41000000000000003 0,-0.8300000000000001 0,-1.25 a6.48,6.48 0 0 0 -0.38000000000000006,-0.7000000000000001 c-1.06,-1.7400000000000002 -2.23,-5.21 -3.46,-9.85 a12,12 0 0 0 -2.7600000000000002,4.25 c-3.87,9.44 -0.29000000000000004,20.52 -3.49,30.2 C880.2199983215332,372.3300006103516 878.7199983215332,374.99000061035156 878.3799983215332,377.93000061035156 z" opacity="0.1" id="svg_139"/><path d="M857.2199983215332,717.2700006103515 a35.42,35.42 0 0 1 -28.73,5.69 " opacity="0.1" id="svg_140" class=""/><path d="M788.3699983215332,718.9200006103515 a21.06,21.06 0 0 1 -30.67,-2 " opacity="0.1" id="svg_141"/><path d="M832.2499983215332,568.1700006103515 A18.93,18.93 0 0 0 853.0099983215332,558.9900006103516 " opacity="0.1" id="svg_142"/><path d="M784.8499983215332,593.4400006103516 a27.67,27.67 0 0 1 -17.85,-4.9 " opacity="0.1" id="svg_143"/><path d="M817.1999983215333,653.8600006103516 c5.33,2.17 10.08,5.54 15.27,8 s11.2,4.08 16.7,2.36 " opacity="0.1" id="svg_144"/><ellipse cx="529.3400268554688" cy="644.1400146484375" rx="85.12000274658203" ry="24.549999237060547" fill="#434247" id="svg_145"/><ellipse cx="529.3400268554688" cy="636.22998046875" rx="17.030000686645508" ry="4.909999847412109" opacity="0.1" id="svg_146"/><rect x="519.8699951171875" y="506.7300109863281" width="17.5" height="129.5" fill="#434247" id="svg_147"/><path d="M537.3699983215332,513.1400006103515 v15 c-3.5,-1.08 -11.49,-5.63 -17.5,-9.21 V506.73000061035157 h3.6500000000000004 z" opacity="0.1" id="svg_148"/><path d="M496.1399983215332,450.3500006103516 s57.78,-14.870000000000001 72.16,-26 s70.85,41.25 63.39,61 s-34.62,34.08 -34.62,34.08 s-75.12,12.22 -87.9,-13.27 S496.1399983215332,450.3500006103516 496.1399983215332,450.3500006103516 z" fill="#4E4D52" id="svg_149"/><path d="M496.1399983215332,450.3500006103516 s57.78,-14.870000000000001 72.16,-26 s70.85,41.25 63.39,61 s-34.62,34.08 -34.62,34.08 s-75.12,12.22 -87.9,-13.27 S496.1399983215332,450.3500006103516 496.1399983215332,450.3500006103516 z" opacity="0.1" id="svg_150"/><path d="M491.1399983215332,444.3500006103516 s57.78,-14.870000000000001 72.16,-26 s70.85,41.25 63.39,61 s-34.62,34.08 -34.62,34.08 s-75.12,12.22 -87.9,-13.27 S491.1399983215332,444.3500006103516 491.1399983215332,444.3500006103516 z" fill="#4E4D52" id="svg_151"/><path d="M609.8999983215332,342.44000061035155 c-0.22000000000000003,0 -0.43000000000000005,-0.05000000000000001 -0.6400000000000001,-0.09000000000000002 A1.33,1.33 0 0 1 609.8999983215332,342.44000061035155 z" opacity="0.1" id="svg_152"/><path d="M438.7199983215332,400.07000061035154 c-5.77,-1.4100000000000001 -21.68,-2.71 -29.25,22.68 a112.32,112.32 0 0 1 -6.71,17.17 c-7.27,14.91 -16.64,45.56 24.61,52.31 l99,22.5 s53,6.5 56.5,4 s3,-8 3,-8 s-58.5,0 -70,-18 s-12,-42.5 -12,-42.5 s1.44,-37.83 -59,-48.82 C442.8299983215332,401.04000061035157 440.7699983215332,400.57000061035154 438.7199983215332,400.07000061035154 z" fill="#4E4D52" id="svg_153"/><path d="M438.7199983215332,400.24000061035156 c-5.77,-1.4100000000000001 -21.68,-2.71 -29.25,22.68 a112.84,112.84 0 0 1 -6.71,17.18 c-7.27,14.9 -16.64,45.56 24.61,52.31 l99,22.5 s53,6.5 56.5,4 s3,-8 3,-8 s-58.5,0 -70,-18 s-12,-42.5 -12,-42.5 s1.44,-37.83 -59,-48.82 C442.8299983215332,401.2100006103516 440.7699983215332,400.74000061035156 438.7199983215332,400.24000061035156 z" opacity="0.1" id="svg_154"/><path d="M646.2499983215332,374.20000061035154 a15.3,15.3 0 0 0 -15.45,-12.93 c-12.71,0.24000000000000002 -49,1.78 -71.12,11.56 c-4.86,2.15 -9.73,4.24 -14.73,6 c-4.52,1.61 -9.91,4.18 -12.58,7.87 s-65.5,52 25,98.5 c0,0 48.5,13.81 67.5,-18.59 c0,0 13.5,-34.81 12.5,-46.86 s9,-44.55 9,-44.55 S646.3499983215332,374.86000061035156 646.2499983215332,374.20000061035154 z" fill="#4E4D52" id="svg_155"/><path d="M646.2499983215332,382.9600006103516 c-1.1400000000000001,-7 -7.8,-12.06 -15.45,-11.93 c-14.24,0.24000000000000002 -58.07,2 -78.43,14.27 c0,0 -15.5,9.23 -20,9.23 s-65.5,48 25,90.93 c0,0 48.5,12.74 67.5,-17.17 c0,0 13.5,-32.13 12.5,-43.25 s9,-41.13 9,-41.13 S646.3499983215332,383.56000061035155 646.2499983215332,382.9600006103516 z" opacity="0.1" id="svg_156"/><rect x="581.8699951171875" y="485.2300109863281" width="16" height="34.06999969482422" fill="#434247" id="svg_157"/></g></svg>